<svg height="512pt" viewBox="-48 0 512 512" width="512pt" xmlns="http://www.w3.org/2000/svg"><path d="m398.148438 379.800781h-6.597657c-2 0-3.800781-1.402343-4.402343-3.199219-1.398438-4.601562-3.199219-8.800781-5.398438-13-1-1.800781-.601562-4 .800781-5.402343l4.800781-4.800781c5.199219-5.199219 5.199219-13.796876 0-19l-12.601562-12.597657c-5.199219-5.199219-13.800781-5.199219-19 0l-4.800781 4.800781c-1.398438 1.398438-3.597657 1.796876-5.398438.796876-4.199219-2.199219-8.601562-4-13-5.398438-2-.601562-3.199219-2.398438-3.199219-4.398438v-6.601562c0-7.398438-6-13.398438-13.402343-13.398438h-18c-7.398438 0-13.398438 6-13.398438 13.398438v6.601562c0 2-1.402343 3.796876-3.199219 4.398438-4.601562 1.398438-8.800781 3.199219-13 5.398438-1.800781 1-4 .601562-5.402343-.796876l-4.800781-4.601562c-5.199219-5.199219-13.796876-5.199219-19 0l-12.597657 12.601562c-5.199219 5.199219-5.199219 13.796876 0 19l4.800781 4.796876c1.398438 1.402343 1.796876 3.601562.796876 5.402343-2.199219 4.199219-4 8.597657-5.398438 13-.601562 2-2.398438 3.199219-4.398438 3.199219h-6.601562c-7.398438 0-13.398438 6-13.398438 13.398438v18c0 7.402343 6 13.402343 13.398438 13.402343h6.601562c2 0 3.796876 1.398438 4.398438 3.199219 1.398438 4.601562 3.199219 8.800781 5.398438 13 1 1.800781.601562 4-.796876 5.398438l-4.800781 4.800781c-5.199219 5.199219-5.199219 13.800781 0 19l12.597657 12.601562c5.203124 5.199219 13.800781 5.199219 19 0l4.800781-4.800781c1.402343-1.398438 3.601562-1.800781 5.402343-.800781 4.199219 2.199219 8.597657 4 13 5.402343 2 .597657 3.199219 2.398438 3.199219 4.398438v6.601562c0 7.398438 6 13.398438 13.398438 13.398438h18c7.402343 0 13.402343-6 13.402343-13.398438v-6.601562c0-2 1.398438-3.800781 3.199219-4.398438 4.597657-1.402343 8.800781-3.203124 13-5.402343 1.800781-1 4-.597657 5.398438.800781l4.800781 4.800781c5.199219 5.199219 13.800781 5.199219 19 0l12.601562-12.601562c5.199219-5.199219 5.199219-13.800781 0-19l-4.800781-4.800781c-1.402343-1.398438-1.800781-3.597657-.800781-5.398438 2.199219-4.199219 4-8.601562 5.398438-13 .601562-2 2.402343-3.199219 4.402343-3.199219h6.597657c7.402343 0 13.402343-6 13.402343-13.402343v-18c0-7.597657-6-13.597657-13.402343-13.597657zm0 0" fill="#ffcd29"/><path d="m306.550781 341.199219c-33.601562 0-61 27.199219-61 61s27.199219 61 61 61 61-27.199219 61-61-27.199219-61-61-61zm0 0" fill="#88e288"/><path d="m306.550781 443.800781c-23 0-41.800781-18.601562-41.800781-41.800781s18.601562-41.800781 41.800781-41.800781c23 0 41.800781 18.601562 41.800781 41.800781s-18.601562 41.800781-41.800781 41.800781zm0 0" fill="#6dcc6d"/><path d="m259.148438 250.398438c-7.199219 0-13.199219-5.796876-13.199219-13.199219v-86.398438c-.199219-7.199219 5.601562-13.199219 12.800781-13.402343 7.199219-.199219 13.199219 5.601562 13.398438 12.800781v.402343 86.398438c.203124 7.601562-5.796876 13.398438-13 13.398438zm0 0" fill="#fa7682"/><path d="m85.75 250.398438c7.199219 0 13.199219-5.796876 13.199219-13.199219v-86.398438c.199219-7.199219-5.597657-13.199219-12.800781-13.402343-7.199219-.199219-13.199219 5.601562-13.398438 12.800781v.402343 86.398438c0 7.601562 5.800781 13.398438 13 13.398438zm0 0" fill="#fa7682"/><path d="m72.75 149.800781c0 .398438-.199219.597657-.199219 1v86.398438c0 .402343 0 .601562.199219 1-24.398438-3.800781-41.199219-26.597657-37.398438-51 3-19.199219 18.199219-34.398438 37.398438-37.398438zm0 0" fill="#ea4647"/><path d="m272.148438 149.800781c0 .398438.203124.597657.203124 1v86.398438c0 .402343 0 .601562-.203124 1 24.402343-3.800781 41.203124-26.597657 37.402343-51-3-19.199219-18-34.398438-37.402343-37.398438zm0 0" fill="#ea4647"/><path d="m281.148438 152.199219.203124-17.800781c0-60.199219-48.800781-109.199219-109.203124-109.199219-60.199219 0-109.199219 48.800781-109.199219 109.199219v18.203124c2-54.203124 46.601562-97 100.800781-97h16.398438c54.402343 0 98.800781 42.597657 101 96.597657zm0 0" fill="#e9e9ea"/><path d="m281.148438 152.199219c-2.199219-54-46.796876-96.800781-100.796876-96.800781h-16.402343c-54.199219 0-98.800781 42.800781-100.800781 97 3.203124-1.199219 6.402343-2.199219 9.800781-2.597657 0 .398438-.199219.597657-.199219 1 .199219-7.199219 6-13 13.398438-12.800781 7 .199219 12.800781 5.800781 12.800781 12.800781v12-1.199219c0-2.203124 1.800781-3.800781 4-3.800781h.800781c13.398438 2.800781 53 7.597657 79.800781-26 1.398438-1.800781 3.800781-2 5.597657-.601562.203124 0 .203124.199219.402343.199219 6.199219 6 22.199219 18.203124 52.800781 19.203124 2 0 3.796876 1.796876 3.796876 3.796876v.203124-3.800781c.203124-7.199219 6-13 13.402343-12.800781 7 .199219 12.800781 5.800781 12.800781 12.800781 0-.402343 0-.601562-.203124-1 3 .597657 6.203124 1.398438 9 2.398438zm0 0" fill="#6d6c6b"/><path d="m190.949219 292c.402343 1.199219.601562 2.601562.601562 3.800781 0 7.199219-5.800781 13.199219-13.199219 13.199219h-9.402343c-7.199219 0-13-5.601562-13.199219-12.800781 0-1.199219.199219-2.398438.398438-3.597657-5.796876-1.402343-11.597657-3.402343-16.796876-6v27.398438l11.597657 33.199219c.601562 2 2.601562 3.199219 4.601562 3.199219h35.398438c2 0 3.800781-1.398438 4.601562-3.199219l11.597657-33.199219v-28.398438c-5 2.796876-10.398438 5-16.199219 6.398438zm0 0" fill="#f9d0b4"/><path d="m245.949219 154.398438c0-2-1.800781-3.796876-3.800781-3.796876-30.597657-1-46.597657-13-52.796876-19.203124-1.601562-1.597657-4-1.597657-5.601562 0-.199219.203124-.199219.203124-.199219.402343-26.800781 33.800781-66.601562 29-79.800781 26-2.199219-.402343-4.199219.800781-4.601562 3v.800781 59.199219c0 34.398438 24 64.398438 57.601562 71.800781 1.398438-5.800781 6.601562-9.800781 12.601562-9.800781h9.398438c5.800781 0 10.800781 3.800781 12.398438 9.199219 32.203124-8.601562 54.800781-37.601562 55-71l.203124-65.601562c-.203124-.199219-.203124-.597657-.402343-1zm0 0" fill="#f9d0b4"/><path d="m156.148438 296c0 7.199219 5.800781 13.199219 13.203124 13.199219h9.398438c7.199219-.199219 13-6 12.800781-13.398438-.199219-7-5.800781-12.800781-12.800781-12.800781h-9.398438c-7.402343-.199219-13.203124 5.800781-13.203124 13zm0 0" fill="#f9d0b4"/><path d="m284.351562 493.601562v-6.601562c0-2-1.402343-3.800781-3.203124-4.398438-4.597657-1.402343-8.796876-3.203124-13-5.402343-1.796876-1-4-.597657-5.398438.800781l-4.800781 4.800781c-5.199219 5.199219-13.800781 5.199219-19 0l-12.597657-12.601562c-5.203124-5.199219-5.203124-13.800781 0-19l4.796876-4.800781c1.402343-1.398438 1.800781-3.597657.800781-5.398438-2.199219-4.199219-4-8.601562-5.398438-13-.601562-2-2.402343-3.199219-4.402343-3.199219h-6.597657c-7.402343 0-13.402343-6-13.402343-13.402343v-18c0-7.398438 6-13.398438 13.402343-13.398438h6.597657c2 0 3.800781-1.398438 4.402343-3.199219 1.398438-4.601562 3.199219-8.800781 5.398438-13 1-1.800781.601562-4-.800781-5.402343l-4.796876-4.796876c-5.203124-5.203124-5.203124-13.800781 0-19l7.398438-7.402343-26.199219-13-11.601562 33.199219c-.597657 2-2.597657 3.203124-4.597657 3.203124h-35.601562c-2 0-3.800781-1.402343-4.601562-3.203124l-11.597657-33.398438-34.402343 17-57.199219 14.398438c-12.398438 3-21.199219 13.800781-21.800781 26.601562l-6.597657 120c-.402343 7.800781 5.597657 14.398438 13.199219 14.800781h.800781 261.199219c-6-1.402343-10.398438-6.800781-10.398438-13.199219zm0 0" fill="#e9e9ea"/><path d="m289.148438 8.601562h-3.597657v-3.601562c0-2.800781-2.199219-5-5-5s-5 2.199219-5 5v3.601562h-3.601562c-2.800781 0-5 2.199219-5 5 0 2.796876 2.199219 5 5 5h3.601562v3.597657c0 2.800781 2.199219 5 5 5s5-2.199219 5-5v-3.597657h3.597657c2.800781 0 5-2.203124 5-5 0-2.800781-2.199219-5-5-5zm0 0" fill="#6dcc6d"/><path d="m315.75 54c0-.398438-.199219-.601562-.199219-1-.199219-.199219-.199219-.601562-.402343-.800781-.199219-.199219-.398438-.597657-.597657-.800781-2-1.796876-5-1.796876-7 0-.199219.203124-.402343.402343-.601562.800781-.398438.601562-.597657 1.199219-.800781 1.800781-.199219.601562-.199219 1.398438 0 2 0 .398438.203124.601562.203124 1 .199219.398438.199219.601562.398438.800781s.398438.597657.601562.800781c2 2 5 2 7 0 .199219-.203124.398438-.402343.597657-.800781.199219-.199219.402343-.601562.402343-.800781.199219-.199219.199219-.601562.199219-1 .199219-.800781.199219-1.398438.199219-2zm0 0" fill="#55acd5"/><path d="m9.75 328c0-.398438-.199219-.601562-.199219-1-.199219-.199219-.199219-.601562-.402343-.800781-.199219-.199219-.398438-.597657-.597657-.800781-2-1.796876-5-1.796876-7 0-.199219.203124-.402343.402343-.601562.800781-.398438.601562-.597657 1.199219-.800781 1.800781-.1992192.601562-.1992192 1.398438 0 2 0 .398438.203124.601562.203124 1 .199219.398438.199219.601562.398438.800781s.398438.597657.601562.800781c2 2 5 2 7 0 .199219-.203124.398438-.402343.597657-.800781.199219-.199219.402343-.601562.402343-.800781.199219-.199219.199219-.601562.199219-1 .199219-.800781.199219-1.398438.199219-2zm0 0" fill="#ea4647"/><path d="m311.75 264c0-.398438-.199219-.601562-.199219-1-.199219-.199219-.199219-.601562-.402343-.800781-.199219-.199219-.398438-.597657-.597657-.800781-2-1.796876-5-1.796876-7 0-.199219.203124-.402343.402343-.601562.800781-.398438.601562-.597657 1.199219-.800781 1.800781-.199219.601562-.199219 1.398438 0 2 0 .398438.203124.601562.203124 1 .199219.398438.199219.601562.398438.800781s.398438.597657.601562.800781c2 2 5 2 7 0 .199219-.203124.398438-.402343.597657-.800781.199219-.199219.402343-.601562.402343-.800781.199219-.199219.199219-.601562.199219-1 .199219-.800781.199219-1.398438.199219-2zm0 0" fill="#ffcd29"/><path d="m61.351562 278.199219c-6.601562-1.199219-11.800781-6.398438-13.203124-13.199219 0-.199219-.199219-.199219-.398438-.199219s-.199219.199219-.199219.199219c-1.199219 6.601562-6.402343 11.800781-13.199219 13.199219-.203124 0-.203124.199219-.203124.402343 0 .199219.203124.199219.203124.199219 6.597657 1.199219 11.796876 6.398438 13.199219 13.199219 0 .199219.199219.199219.398438.199219s.199219-.199219.199219-.199219c1.203124-6.601562 6.402343-11.800781 13.203124-13.199219.199219 0 .199219-.199219.199219-.402343 0-.199219 0-.199219-.199219-.199219zm0 0" fill="#ffcd29"/><g fill="#231f20"><path d="m173.550781 390.800781c-.402343 0-.601562 0-1-.199219-.601562-.203124-1.199219-.402343-1.800781-.800781-.199219-.199219-.601562-.402343-.800781-.601562-1-1-1.398438-2.199219-1.398438-3.597657 0-.402343 0-.601562.199219-1 .199219-.601562.398438-1.203124.800781-1.800781.199219-.199219.398438-.601562.597657-.800781.203124-.199219.402343-.398438.800781-.601562.601562-.398438 1.199219-.597657 1.800781-.796876.601562-.203124 1.398438-.203124 2 0 .601562.199219 1.199219.398438 1.800781.796876.199219.203124.597657.402343.800781.601562.199219.199219.398438.398438.597657.800781.402343.597657.601562 1.199219.800781 1.800781 0 .398438 0 .597657.199219 1-.398438 3-2.597657 5.199219-5.398438 5.199219zm0 0"/><path d="m173.550781 421c-1.402343 0-2.601562-.601562-3.601562-1.398438-1-1-1.398438-2.203124-1.398438-3.601562 0-.398438 0-.601562.199219-1 0-.398438.199219-.601562.199219-1 .199219-.398438.199219-.601562.402343-.800781.199219-.199219.398438-.597657.597657-.800781 1.402343-1.398438 3.601562-1.796876 5.402343-1.199219.199219.199219.597657.199219.796876.402343.203124.199219.601562.398438.800781.597657 1 1 1.402343 2.199219 1.402343 3.601562 0 1.398438-.601562 2.597657-1.402343 3.597657-.800781 1.203124-2.199219 1.601562-3.398438 1.601562zm0 0"/><path d="m173.550781 451.398438c-2.800781 0-5-2.199219-5-5 0-1.398438.597657-2.597657 1.398438-3.597657.199219-.199219.402343-.402343.800781-.601562.601562-.398438 1.199219-.597657 1.800781-.800781.597657-.199219 1.398438-.199219 2 0 .398438 0 .597657.203124 1 .203124.398438.199219.597657.199219.800781.398438.199219.199219.597657.398438.796876.601562 1 1 1.402343 2.199219 1.402343 3.597657 0 .601562-.199219 1.402343-.402343 2-.199219.402343-.199219.601562-.398438.800781s-.398438.601562-.601562.800781c-.199219.199219-.398438.398438-.796876.597657-.203124.203124-.601562.402343-.800781.402343-.402343.199219-.601562.199219-1 .199219-.402343.398438-.800781.398438-1 .398438zm0 0"/><path d="m173.550781 481.601562c-2.800781 0-5-2.203124-5-5 0-.402343 0-.601562.199219-1 0-.402343.199219-.601562.199219-1 .199219-.402343.199219-.601562.402343-.800781.199219-.199219.398438-.601562.597657-.800781s.402343-.398438.800781-.601562c.199219-.199219.601562-.398438.800781-.398438.398438-.199219.597657-.199219 1-.199219.597657-.199219 1.398438-.199219 2 0 .398438 0 .597657.199219 1 .199219.398438.199219.597657.199219.800781.398438.199219.203124.597657.402343.796876.601562.203124.199219.402343.398438.601562.800781.199219.199219.398438.597657.398438.800781.203124.398438.203124.597657.203124 1 0 .398438 0 .597657.199219 1 0 1.398438-.601562 2.597657-1.402343 3.597657-.199219.199219-.398438.402343-.796876.601562-.203124.199219-.601562.398438-.800781.398438-.402343.199219-.601562.199219-1 .199219-.402343.203124-.800781.203124-1 .203124zm0 0"/><path d="m85.351562 511.800781c-2.800781 0-5-2.199219-5-5v-76.601562c0-2.800781 2.199219-5 5-5 2.796876 0 5 2.199219 5 5v76.601562c0 2.597657-2.203124 5-5 5zm0 0"/><path d="m259.148438 255.398438c-10 0-18-8.199219-18.199219-18.199219v-86.398438c-.199219-10 7.800781-18.199219 17.800781-18.402343 10-.199219 18.199219 7.800781 18.398438 17.800781v.601562 86.398438c0 10.199219-8 18.199219-18 18.199219zm0-112.597657c-4.398438 0-8 3.597657-8.199219 8.199219v86.398438c0 4.402343 3.402343 8.203124 8 8.203124 4.601562 0 8.199219-3.402343 8.199219-8 0-.203124 0-.203124 0-.402343v-86.398438c.203124-4.402343-3.597657-8-8-8zm0 0"/><path d="m85.75 255.398438c-10 0-18-8.199219-18.199219-18.199219v-86.398438c-.199219-10 7.800781-18.199219 17.800781-18.402343 10-.199219 18.199219 7.800781 18.398438 17.800781v.601562 86.398438c.199219 10.199219-8 18.199219-18 18.199219zm0-112.597657c-4.398438 0-8 3.597657-8.199219 8.199219v86.398438c0 4.402343 3.398438 8.203124 8 8.203124 4.398438 0 8.199219-3.402343 8.199219-8 0-.203124 0-.203124 0-.402343v-86.398438c.199219-4.402343-3.398438-8-8-8zm0 0"/><path d="m72.75 243.398438c-.199219 0-.601562 0-.800781 0-27.199219-4.199219-45.800781-29.597657-41.597657-56.796876 3.199219-21.402343 20.199219-38.402343 41.597657-41.601562 2.800781-.398438 5.199219 1.398438 5.800781 4.199219v1.199219.601562 86.398438.601562c.199219 2.800781-1.800781 5.199219-4.601562 5.398438 0 0-.199219 0-.398438 0zm-5-87.199219c-21 6.601562-32.601562 28.800781-26 49.800781 3.800781 12.398438 13.601562 22.199219 26 26zm0 0"/><path d="m272.148438 243.398438c-2.796876 0-5-2.199219-5-5 0-.199219 0-.199219 0-.398438s0-.398438 0-.601562v-86.597657c0-.199219 0-.402343 0-.601562-.199219-2.800781 1.800781-5.199219 4.601562-5.398438h1.199219c27.199219 4.199219 45.800781 29.597657 41.601562 56.800781-3.199219 21.398438-20.199219 38.398438-41.601562 41.597657-.199219.199219-.597657.199219-.800781.199219zm5.203124-87.199219v76c21-6.597657 32.597657-28.800781 26-49.800781-4-12.597657-13.601562-22.398438-26-26.199219zm0 0"/><path d="m62.949219 157.601562c-2.800781 0-5-2.203124-5-5v-18.203124c0-63 51.199219-114.199219 114.199219-114.199219s114 51 114.203124 114.199219v18c0 2.800781-2.203124 5-5 5-.601562 0-1.203124-.199219-1.800781-.398438-1.800781-.800781-3.199219-2.398438-3.199219-4.398438-2-51.402343-44.402343-92-95.800781-92h-16.402343c-51.597657-.203124-94 40.597657-95.796876 92.199219 0 2-1.203124 3.597657-3 4.398438h-.203124c-.796876.199219-1.398438.402343-2.199219.402343zm101-107h16.402343c37 0 71.398438 19.199219 90.597657 50.796876-18.398438-54.597657-77.398438-84-132-65.796876-30.800781 10.398438-55.199219 34.796876-65.597657 65.597657 19.199219-31.597657 53.597657-50.800781 90.597657-50.597657zm0 0"/><path d="m98.949219 167.800781c-2.800781 0-5-2.199219-5-5v-12c0-4.402343-3.597657-8-8.199219-8-4 0-7.398438 3-8 6.800781v.597657.601562c0 2.800781-2.199219 5-5 5-.800781 0-1.398438-.199219-2.199219-.402343-2 .402343-3.800781 1-5.601562 1.800781-2.597657 1-5.398438-.199219-6.398438-2.800781-.199219-.597657-.402343-1.398438-.402343-2 2-57 48.800781-102 105.800781-101.796876h16.402343c56.796876-.203124 103.597657 44.796876 105.796876 101.597657.203124 2.800781-2 5-4.796876 5.199219-.601562 0-1.402343 0-2-.398438-1.601562-.601562-3.402343-1.199219-5-1.601562-2.402343 1.203124-5.402343.203124-6.601562-2.398438-.398438-.601562-.398438-1.398438-.398438-2.199219 0-.199219 0-.402343 0-.601562s0-.398438 0-.597657c-.601562-4.402343-4.800781-7.402343-9.203124-6.800781-4 .597657-6.796876 4-6.796876 8v3.800781c0 2.796876-2.203124 5-5 5-2.402343 0-4.601562-1.800781-5-4.203124-30-1.199219-46.601562-12.398438-54.402343-19.796876-28 34.199219-69 30-82.800781 27.199219-.199219 3-2.398438 5-5.199219 5zm5-15c.199219 0 .601562 0 .800781.199219 14.199219 3 50.199219 6.601562 74.800781-24.398438 3-3.800781 8.800781-4.601562 12.597657-1.402343.203124.199219.402343.402343.800781.601562 5 5 20 16.597657 48.800781 17.597657 3-9.597657 13-15 22.601562-12 4.597657 1.402343 8.597657 4.601562 10.796876 9-6.796876-47.199219-47.199219-82.199219-95-82h-16.398438c-48.601562-.199219-89.601562 36.203124-95.199219 84.402343 3.199219-9.402343 13.597657-14.402343 23-11.199219 7.199219 2.597657 12.199219 9.398438 12.199219 17.199219zm0 0"/><path d="m243.75 300h-52c-2.800781 0-5-2.199219-5-5s2.199219-5 5-5h48.800781l20.800781-43.398438c1.199219-2.402343 4.199219-3.601562 6.597657-2.402343 2.402343 1.199219 3.601562 4.199219 2.402343 6.601562l-22 46.398438c-1 1.601562-2.800781 2.800781-4.601562 2.800781zm0 0"/><path d="m191.148438 355.398438h-35.398438c-4.199219 0-8-2.597657-9.199219-6.597657l-11.601562-33.199219c-.199219-.601562-.199219-1-.199219-1.601562v-27.199219c0-2.800781 2.199219-5 5-5 .800781 0 1.601562.199219 2.199219.597657 5 2.601562 10.199219 4.402343 15.800781 5.601562 2.601562.601562 4.398438 3.199219 3.800781 6v.199219c-1.199219 4.199219 1.199219 8.601562 5.398438 9.800781.800781.199219 1.601562.398438 2.402343.199219h9.398438c4.398438 0 8-3.597657 8.199219-8.199219 0-.800781-.199219-1.601562-.398438-2.398438-.800781-2.601562.597657-5.402343 3.199219-6.203124h.199219c5.402343-1.398438 10.402343-3.398438 15.199219-6 2.402343-1.398438 5.402343-.398438 6.800781 2 .402343.800781.601562 1.601562.601562 2.402343v28.199219c0 .601562 0 1.199219-.199219 1.601562l-11.601562 33.199219c-1.601562 4-5.398438 6.597657-9.601562 6.597657zm-46.597657-42.398438 11.199219 32.398438 35.398438-.199219 11.203124-32.398438v-19.601562c-1.800781.800781-3.800781 1.402343-5.800781 2.199219v.402343c0 10-8.199219 18-18.199219 18.199219h-9.402343c-9.800781 0-17.800781-7.800781-18-17.601562-2.199219-.597657-4.398438-1.398438-6.398438-2.199219zm0 0"/><path d="m156.550781 297.800781c-.402343 0-.800781 0-1-.199219-35.800781-8.203124-61.402343-40-61.601562-76.800781v-59.199219c0-2.601562 1.199219-5.203124 3.199219-7 2-1.800781 4.800781-2.402343 7.402343-1.800781 14.199219 3 50.199219 6.597657 74.800781-24.402343 3-3.796876 8.796876-4.597657 12.597657-1.398438.199219.199219.402343.398438.800781.601562 5.199219 5 20.199219 16.796876 49.398438 17.796876 4.800781.203124 8.601562 4 8.601562 8.800781v1.199219l-.199219 65.402343c-.199219 35.597657-24.199219 66.800781-58.601562 75.800781-2.597657.597657-5.199219-.800781-6-3.402343-1-3.398438-4.199219-5.800781-7.597657-5.800781h-9.402343c-3.597657 0-7 2.601562-7.800781 6.203124-.398438 2.597657-2.398438 4.199219-4.597657 4.199219zm-52.601562-134.800781v57.800781c.199219 30.597657 20.402343 57.398438 49.601562 66 3.199219-5.601562 9.199219-9 15.597657-9h9.402343c6.199219 0 11.800781 3 15.199219 8.199219 28.199219-9.199219 47.199219-35.398438 47.199219-65l.199219-65.601562c-29.796876-1.199219-46.597657-12.597657-54.199219-19.796876-28.199219 34.398438-69 30.199219-83 27.398438zm137.199219-8.398438"/><path d="m178.550781 314h-9.402343c-10-.199219-18-8.398438-17.796876-18.398438.199219-9.800781 8-17.601562 17.796876-17.800781h9.402343c10 .199219 18 8.398438 17.800781 18.398438 0 9.800781-8 17.800781-17.800781 17.800781zm-9.402343-26.199219c-4.398438 0-8 3.800781-8 8.199219s3.601562 7.800781 8 8h9.402343c4.398438 0 8-3.800781 8-8.199219 0-4.402343-3.601562-7.800781-8-8zm0 0"/><path d="m294.949219 511.800781h-261.199219c-10.601562 0-19-8.601562-19-19 0-.402343 0-.800781 0-1l6.601562-120c.796876-14.800781 11.199219-27.601562 25.597657-31l56.601562-14.199219 33.800781-16.800781c2.398438-1.199219 5.398438-.199219 6.597657 2.199219 0 .199219.199219.398438.199219.601562l11.601562 33.199219 35.398438-.199219 11.402343-33.203124c1-2.597657 3.800781-4 6.398438-3 .199219 0 .402343.203124.601562.203124l26.199219 13c2.398438 1.199219 3.398438 4.199219 2.199219 6.597657-.199219.402343-.597657 1-1 1.402343l-7.398438 7.398438c-3.199219 3.199219-3.199219 8.601562 0 11.800781l4.597657 4.800781c3 3 3.601562 7.597657 1.800781 11.199219-2 4-3.800781 8-5 12.398438-1.199219 4-5 6.800781-9.199219 6.800781h-6.601562c-4.597657 0-8.398438 3.800781-8.398438 8.398438v18c0 4.601562 3.800781 8.402343 8.398438 8.402343h6.601562c4.199219 0 8 2.800781 9.199219 6.800781 1.402343 4.199219 3 8.398438 5 12.398438 2 3.800781 1.199219 8.398438-1.800781 11.199219l-4.796876 4.800781c-3.203124 3.199219-3.203124 8.601562 0 11.800781l12.597657 12.597657c3.199219 3.203124 8.601562 3.203124 11.800781 0l4.800781-4.796876c3-3 7.597657-3.601562 11.199219-1.800781 4 2 8 3.800781 12.199219 5 4 1.199219 6.800781 5 6.800781 9.199219v6.601562c0 4 2.800781 7.398438 6.601562 8.199219 2.796876.597657 4.398438 3.199219 3.796876 6 .203124 2.199219-1.796876 4-4.199219 4zm-158.199219-190.800781-29.199219 14.398438c-.402343.203124-.601562.203124-1 .402343l-57.199219 14.199219c-10.203124 2.601562-17.601562 11.398438-18.203124 22l-6.597657 120c-.199219 5 3.597657 9.398438 8.597657 9.601562h.601562 247.398438c-1.199219-2.601562-2-5.402343-2-8.203124v-6.398438c-4.597657-1.398438-9.199219-3.398438-13.398438-5.601562l-4.601562 4.601562c-7.199219 7.199219-18.796876 7.199219-26 0l-12.597657-12.601562c-7.199219-7.199219-7.199219-18.796876 0-26l4.597657-4.597657c-2.199219-4.402343-4-8.800781-5.597657-13.402343h-6.402343c-10.199219 0-18.398438-8.199219-18.398438-18.398438v-18c0-10.199219 8.199219-18.398438 18.398438-18.398438h6.402343c1.398438-4.601562 3.398438-9.203124 5.597657-13.402343l-4.597657-4.597657c-7.199219-7.203124-7.199219-18.800781 0-26l2.597657-2.601562-14.796876-7.398438-9.800781 28c-1.402343 4-5.199219 6.597657-9.199219 6.597657h-35.601562c-4.199219 0-8-2.597657-9.199219-6.597657zm0 0"/><path d="m259.550781 511.800781c-2.800781 0-5-2.199219-5-5v-25.800781c0-2.800781 2.199219-5 5-5s5 2.199219 5 5v25.800781c0 2.597657-2.199219 5-5 5zm0 0"/><path d="m315.550781 512h-18c-10.199219 0-18.402343-8.199219-18.402343-18.398438v-6.402343c-4.597657-1.398438-9.199219-3.398438-13.398438-5.597657l-4.601562 4.597657c-7.199219 7.199219-18.796876 7.199219-26 0l-12.597657-12.597657c-7.199219-7.203124-7.199219-18.800781 0-26l4.597657-4.601562c-2.199219-4.398438-4-8.800781-5.597657-13.398438h-6.402343c-10.199219 0-18.398438-8.203124-18.398438-18.402343v-18c0-10.199219 8.199219-18.398438 18.398438-18.398438h6.402343c1.398438-4.601562 3.398438-9.199219 5.597657-13.402343l-4.597657-4.597657c-7.199219-7.199219-7.199219-18.800781 0-26l12.597657-12.601562c7.203124-7.199219 18.800781-7.199219 26 0l4.601562 4.601562c4.398438-2.199219 8.800781-4 13.398438-5.601562v-6.398438c0-10.199219 8.203124-18.402343 18.402343-18.402343h18c10.199219 0 18.398438 8.203124 18.398438 18.402343v6.398438c4.601562 1.402343 9.199219 3.402343 13.402343 5.601562l4.597657-4.601562c7.199219-7.199219 18.800781-7.199219 26 0l12.601562 12.601562c7.199219 7.199219 7.199219 18.800781 0 26l-4.601562 4.597657c2.199219 4.402343 4 8.800781 5.601562 13.402343h6.398438c10.199219 0 18.402343 8.199219 18.402343 18.398438v18c0 10.199219-8.203124 18.402343-18.402343 18.402343h-6.398438c-1.402343 4.597657-3.402343 9.199219-5.601562 13.398438l4.601562 4.601562c7.199219 7.199219 7.199219 18.796876 0 26l-12.601562 12.597657c-7.199219 7.199219-18.800781 7.199219-26 0l-4.597657-4.597657c-4.402343 2.199219-8.800781 4-13.402343 5.597657v6.402343c0 10.199219-8.199219 18.398438-18.398438 18.398438zm-49.800781-40.398438c1.601562 0 3 .398438 4.398438 1 4 2 8 3.796876 12.203124 5 4 1.199219 6.796876 5 6.796876 9.199219v6.597657c0 4.601562 3.800781 8.402343 8.402343 8.402343h18c4.597657 0 8.398438-3.800781 8.398438-8.402343v-6.597657c0-4.199219 2.800781-8 6.800781-9.199219 4.199219-1.402343 8.398438-3 12.199219-5s8.402343-1.203124 11.199219 1.796876l4.800781 4.800781c3.199219 3.199219 8.601562 3.199219 11.800781 0l12.601562-12.597657c3.199219-3.203124 3.199219-8.601562 0-11.800781l-4.800781-4.800781c-3-3-3.601562-7.601562-1.800781-11.199219 2-4 3.800781-8 5-12.199219 1.199219-4 5-6.800781 9.199219-6.800781h6.601562c4.597657 0 8.398438-3.800781 8.398438-8.402343v-18c0-4.597657-3.800781-8.398438-8.398438-8.398438h-6c-4.199219 0-8-2.800781-9.199219-6.800781-1.402343-4.199219-3-8.398438-5-12.199219s-1.203124-8.398438 1.796876-11.199219l4.800781-4.800781c3.199219-3.199219 3.199219-8.601562 0-11.800781l-12.597657-12.597657c-3.203124-3.203124-8.601562-3.203124-11.800781 0l-4.800781 4.796876c-3 3-7.601562 3.601562-11.199219 1.800781-4-2-8-3.800781-12.199219-5-4-1.199219-6.800781-5-6.800781-9.199219v-6.601562c0-4.597657-3.800781-8.398438-8.402343-8.398438h-18c-4.597657 0-8.398438 3.800781-8.398438 8.398438v6.601562c0 4.199219-2.800781 8-6.800781 9.199219-4.199219 1.402343-8.398438 3-12.199219 5s-8.398438 1.199219-11.199219-1.800781l-4.800781-4.796876c-3.199219-3.203124-8.601562-3.203124-11.800781 0l-12.597657 12.597657c-3.203124 3.199219-3.203124 8.601562 0 11.800781l4.796876 4.601562c3 3 3.601562 7.597657 1.800781 11.199219-2 4-3.800781 8-5 12.398438-1.199219 4-5 6.800781-9.199219 6.800781h-6.601562c-4.597657 0-8.398438 3.800781-8.398438 8.398438v18c0 4.601562 3.800781 8.402343 8.398438 8.402343h6.601562c4.199219 0 8 2.800781 9.199219 6.800781 1.402343 4.199219 3 8.398438 5 12.398438 2 3.800781 1.199219 8.398438-1.800781 11.199219l-4.796876 4.800781c-3.203124 3.199219-3.203124 8.601562 0 11.800781l12.597657 12.597657c3.199219 3.203124 8.601562 3.203124 11.800781 0l4.800781-4.796876c1.199219-2 3.597657-3 6.199219-3zm0 0"/><path d="m302.148438 422.398438c-1.398438 0-2.796876-.597657-3.597657-1.597657l-14.199219-15.601562c-1.800781-2-1.601562-5.199219.398438-7s5-1.597657 7 .402343l10.601562 11.597657 20.199219-20.199219c2-2 5.199219-1.800781 7 .199219s1.800781 5 0 7l-23.800781 23.800781c-1 1-2.199219 1.398438-3.601562 1.398438zm0 0"/><path d="m306.550781 468c-36.402343 0-66-29.601562-66-66s29.597657-66 66-66c36.398438 0 66 29.601562 66 66 0 36.601562-29.601562 66-66 66zm0-121.800781c-30.800781 0-56 25-56 56s25 56 56 56 56-25 56-56-25-56-56-56zm0 0"/><path d="m306.550781 448.800781c-25.800781 0-46.800781-21-46.800781-46.800781s21-46.800781 46.800781-46.800781 46.800781 21 46.800781 46.800781c0 26-21 46.800781-46.800781 46.800781zm0-83.402343c-20.402343 0-36.800781 16.402343-36.800781 36.800781 0 20.402343 16.398438 36.800781 36.800781 36.800781 20.398438 0 36.800781-16.398438 36.800781-36.800781 0-20.398438-16.402343-36.800781-36.800781-36.800781zm0 0"/></g></svg>