<svg height="512pt" viewBox="0 -27 512 511" width="512pt" xmlns="http://www.w3.org/2000/svg"><path d="m393.199219 5.699219c-6 0-10.800781 4.800781-10.800781 10.800781v355.199219c0 6 4.800781 10.800781 10.800781 10.800781s10.800781-4.800781 10.800781-10.800781v-355.398438c-.199219-5.800781-5-10.601562-10.800781-10.601562zm0 0" fill="#ea4647"/><path d="m99.199219 98.699219h83.601562c13.800781 0 25.199219 11.199219 25.199219 25.199219v140.203124c0 13.796876-11.199219 25.199219-25.199219 25.199219h-83.601562c-13.800781 0-25.199219-11.199219-25.199219-25.199219v-140.203124c0-14 11.199219-25.199219 25.199219-25.199219zm0 0" fill="#ea4647"/><path d="m74 262.898438v-138.398438c-15 2.601562-26 15.398438-26 30.601562v77.597657c0 15.199219 11 28 26 30.601562 0 0 0-.199219 0-.402343zm0 0" fill="#ffcd29"/><path d="m48 232.699219v-77.597657c0-6.402343 2-12.402343 5.601562-17.601562h-23.402343c-14 0-25.199219 11.199219-25.199219 25v62.800781c0 13.800781 11.199219 25 25.199219 25.199219h23.601562c-3.800781-5.199219-5.800781-11.398438-5.800781-17.800781zm0 0" fill="#55acd5"/><path d="m382.398438 25.898438-174.398438 99v138l174.398438 99zm0 0" fill="#e9e9ea"/><path d="m420.398438 177.699219h-16.398438v32.402343h16.398438c9 0 16.203124-7.203124 16.203124-16.203124s-7.402343-16.199219-16.203124-16.199219zm0 0" fill="#e9e9ea"/><path d="m159 289.101562h-59.800781c-.398438 0-.800781 0-1.199219 0l40.398438 141.398438c4.402343 15.601562 20.601562 24.601562 36.203124 20.199219 15.597657-4.398438 24.597657-20.597657 20.199219-36.199219zm0 0" fill="#e9e9ea"/><path d="m209.601562 36.699219h-3.601562v-3.597657c0-2.800781-2.199219-5-5-5s-5 2.199219-5 5v3.597657h-3.601562c-2.796876 0-5 2.199219-5 5s2.203124 5 5 5h3.601562v3.601562c0 2.800781 2.199219 5 5 5s5-2.199219 5-5v-3.601562h3.601562c2.796876 0 5-2.199219 5-5s-2.203124-5-5-5zm0 0" fill="#ffcd29"/><path d="m156.199219 62.699219c0-.398438-.199219-.597657-.199219-1-.199219-.199219-.199219-.597657-.398438-.800781-.203124-.199219-.402343-.597657-.601562-.796876-2-1.800781-5-1.800781-7 0-.199219.199219-.398438.398438-.601562.796876-.398438.601562-.597657 1.203124-.796876 1.800781-.203124.601562-.203124 1.402343 0 2 0 .402343.199219.601562.199219 1 .199219.402343.199219.601562.398438.800781s.402343.601562.601562.800781c2 2 5 2 7 0 .199219-.199219.398438-.402343.597657-.800781.203124-.199219.402343-.601562.402343-.800781.199219-.199219.199219-.597657.199219-1 .199219-.800781.199219-1.398438.199219-2zm0 0" fill="#ea4647"/><path d="m280.199219 380.699219c0-.398438-.199219-.597657-.199219-1-.199219-.199219-.199219-.597657-.398438-.800781-.203124-.199219-.402343-.597657-.601562-.796876-2-1.800781-5-1.800781-7 0-.199219.199219-.398438.398438-.601562.796876-.398438.601562-.597657 1.203124-.796876 1.800781-.203124.601562-.203124 1.402343 0 2 0 .402343.199219.601562.199219 1 .199219.402343.199219.601562.398438.800781s.402343.601562.601562.800781c2 2 5 2 7 0 .199219-.199219.398438-.402343.597657-.800781.203124-.199219.402343-.601562.402343-.800781.199219-.199219.199219-.597657.199219-1 .199219-.800781.199219-1.398438.199219-2zm0 0" fill="#55acd5"/><path d="m241.800781 338.898438c-6.601562-1.199219-11.800781-6.398438-13.199219-13.199219 0-.199219-.203124-.199219-.402343-.199219s-.199219.199219-.199219.199219c-1.199219 6.601562-6.398438 11.800781-13.199219 13.199219-.199219 0-.199219.203124-.199219.402343s.199219.199219.199219.199219c6.597657 1.199219 11.800781 6.398438 13.199219 13.199219 0 .199219.199219.199219.398438.199219.203124 0 .203124-.199219.203124-.199219 1.199219-6.597657 6.398438-11.800781 13.199219-13.199219.199219 0 .199219-.199219.199219-.398438 0-.203124 0-.203124-.199219-.203124zm0 0" fill="#6dcc6d"/><g fill="#231f20"><path d="m393.199219 387.300781c-8.597657 0-15.800781-7-15.800781-15.800781v-355.199219c0-8.800781 7-15.800781 15.800781-15.800781s15.800781 7 15.800781 15.800781v355.199219c-.199219 8.800781-7.199219 15.800781-15.800781 15.800781zm0-376.601562c-3.199219 0-5.800781 2.601562-5.800781 5.800781v355.199219c0 3.199219 2.601562 5.800781 5.800781 5.800781s5.800781-2.601562 5.800781-5.800781v-355.398438c-.199219-3.199219-2.800781-5.601562-5.800781-5.601562zm0 0"/><path d="m182.800781 294.101562h-83.601562c-16.597657 0-30-13.402343-30.199219-30.203124v-140c0-16.597657 13.398438-30 30.199219-30.199219h83.601562c16.597657 0 30 13.402343 30.199219 30.199219v140.203124c0 16.597657-13.601562 30-30.199219 30zm-83.601562-190.402343c-11.199219 0-20 9-20.199219 20.199219v140.203124c0 11.199219 9 20 20.199219 20.199219h83.601562c11.199219 0 20-9 20.199219-20.199219v-140.203124c0-11.199219-9-20-20.199219-20.199219zm0 0"/><path d="m74 268.300781c-.199219 0-.601562 0-.800781 0-17.398438-2.800781-30.199219-17.800781-30.199219-35.601562v-77.597657c0-17.601562 12.800781-32.601562 30.199219-35.601562 2.800781-.398438 5.402343 1.398438 5.800781 4.199219v.800781 138.398438.402343c.199219 2.800781-2 5-5 5zm-5-137.199219c-9.601562 4.199219-15.800781 13.597657-16 24v77.597657c0 10.402343 6.398438 19.800781 16 24zm0 0"/><path d="m53.601562 255.5h-23.402343c-16.597657 0-30-13.398438-30.199219-30.199219v-62.800781c0-16.601562 13.398438-30 30.199219-30.199219h23.601562c2.800781 0 5 2.199219 5 5 0 1-.402343 2-1 2.800781-3 4.398438-4.601562 9.597657-4.601562 14.796876v77.800781c0 5.199219 1.601562 10.402343 4.601562 14.800781 1.597657 2.199219 1 5.398438-1.199219 7-.800781.601562-1.800781 1-3 1zm-23.402343-113c-11.199219 0-20.199219 9-20.199219 20v62.800781c0 11.199219 9 20 20.199219 20.199219h15.199219c-1.597657-4-2.398438-8.398438-2.398438-12.601562v-77.796876c0-4.402343.800781-8.601562 2.398438-12.601562zm0 0"/><path d="m382.398438 366.898438c-.796876 0-1.796876-.199219-2.398438-.597657l-174.398438-99c-1.601562-.800781-2.601562-2.601562-2.601562-4.402343v-138c0-1.796876 1-3.398438 2.601562-4.398438l174.398438-99c2.398438-1.398438 5.398438-.601562 6.800781 1.800781.398438.800781.597657 1.597657.597657 2.398438v336c0 3-2.199219 5.199219-5 5.199219zm-169.398438-106.796876 164.398438 93.199219v-318.800781l-164.398438 93.199219zm0 0"/><path d="m420.398438 215.101562h-16.398438c-2.800781 0-5-2.203124-5-5v-32.402343c0-2.800781 2.199219-5 5-5h16.398438c11.800781 0 21.203124 9.402343 21.203124 21.199219 0 11.800781-9.601562 21.203124-21.203124 21.203124zm-11.597657-10h11.398438c6.199219 0 11.199219-5 11.199219-11.203124 0-6.199219-5-11.199219-11.199219-11.199219h-11.398438zm0 0"/><path d="m166.601562 456.699219c-15.402343 0-28.800781-10.199219-33-24.800781l-40.402343-141.398438c-.800781-2.601562.800781-5.398438 3.402343-6.199219.597657-.199219 1-.199219 1.597657-.199219h.601562.398438 59.800781c2.199219 0 4.199219 1.398438 4.800781 3.597657l35.800781 125.199219c5.199219 18.203124-5.402343 37.203124-23.601562 42.402343-3.199219 1-6.199219 1.398438-9.398438 1.398438zm-62-162.597657 38.597657 135c3.800781 12.796876 17.199219 20.199219 30.199219 16.398438 12.800781-3.800781 20.203124-17 16.601562-29.800781l-34.800781-121.597657zm0 0"/><path d="m507 198.699219h-42c-2.800781 0-5-2.199219-5-5s2.199219-5 5-5h42c2.800781 0 5 2.199219 5 5s-2.199219 5-5 5zm0 0"/><path d="m459.601562 168.699219c-2.800781 0-5-2.199219-5-5 0-1.800781 1-3.597657 2.597657-4.398438l36.800781-20c2.398438-1.402343 5.398438-.402343 6.800781 2 1.398438 2.398438.398438 5.398438-2 6.800781l-36.800781 20c-.800781.398438-1.601562.597657-2.398438.597657zm0 0"/><path d="m441.398438 143.5c-2.796876 0-5-2.199219-5-5 0-1 .402343-2.199219 1-3l25.402343-33.601562c1.597657-2.199219 4.800781-2.597657 7-1 2.199219 1.601562 2.597657 4.800781 1 7l-25.402343 33.601562c-1 1.199219-2.398438 2-4 2zm0 0"/><path d="m496.398438 248.699219c-.796876 0-1.597657-.199219-2.398438-.597657l-36.800781-20.203124c-2.398438-1.398438-3.398438-4.398438-2-6.796876 1.402343-2.402343 4.402343-3.402343 6.800781-2l36.800781 20.199219c2.398438 1.398438 3.398438 4.398438 2 6.800781-.800781 1.597657-2.601562 2.597657-4.402343 2.597657zm0 0"/><path d="m466.601562 287.5c-1.601562 0-3-.800781-4-2l-25.402343-33.601562c-1.597657-2.199219-1.199219-5.398438 1-7 2.199219-1.597657 5.402343-1.199219 7 1l25.402343 33.601562c1.597657 2.199219 1.199219 5.398438-1 7-.800781.601562-1.800781 1-3 1zm0 0"/></g></svg>