<svg height="512pt" viewBox="0 -16 512 512" width="512pt" xmlns="http://www.w3.org/2000/svg"><path d="m256 5.550781c-47.398438 0-86 38.398438-86 86 0 47.597657 38.398438 86 86 86s86-38.402343 86-86c0-47.402343-38.601562-85.800781-86-86zm0 0" fill="#88e288"/><path d="m256 155.148438c-35 0-63.398438-28.398438-63.398438-63.398438s28.398438-63.398438 63.398438-63.398438 63.398438 28.398438 63.398438 63.398438c0 34.800781-28.398438 63.199219-63.398438 63.398438zm0 0" fill="#6dcc6d"/><path d="m360 141.75 24.199219-24.199219c2.199219-2.199219 5.601562-2.199219 7.601562 0l113.597657 113.597657c2.203124 2.203124 2.203124 5.601562 0 7.601562l-24.199219 24.199219c-2.199219 2.199219-5.597657 2.199219-7.597657 0l-113.601562-113.398438c-2-2.199219-2-5.601562 0-7.800781zm0 0" fill="#55acd5"/><path d="m6.601562 231.148438 113.597657-113.597657c2.199219-2.199219 5.601562-2.199219 7.601562 0l24.199219 24.199219c2.199219 2.199219 2.199219 5.601562 0 7.601562l-113.601562 113.597657c-2.199219 2.199219-5.597657 2.199219-7.597657 0l-24.199219-24c-2.203124-2.199219-2.203124-5.597657 0-7.800781zm0 0" fill="#55acd5"/><path d="m165.800781 170.148438-17.199219-17.199219-104.800781 104.800781 17.199219 17.199219c2 2 5.398438 2 7.398438 0l97.402343-97.398438c2-2 2-5.402343 0-7.402343zm0 0" fill="#e9e9ea"/><path d="m346.199219 170.148438 17.199219-17.199219 104.800781 104.800781-17.199219 17.199219c-2 2-5.398438 2-7.398438 0l-97.402343-97.398438c-2-2-2-5.402343 0-7.402343zm0 0" fill="#e9e9ea"/><path d="m241 291.148438 15.199219-14.796876 96.601562 96.796876 21.800781-21.796876c5.398438-5.402343 10-11.601562 13.398438-18.402343l6.199219-12.199219c3.800781-7.398438 8.800781-14.398438 14.800781-20.199219l29.800781-29.800781-88.199219-88.199219-15.601562 15.199219c-11 10.199219-23.199219 16.398438-35.398438 18.199219l-18.601562 3.402343c-17.601562 3.199219-33.800781 11.597657-46.398438 24.199219l-20.601562 20.597657c-7.398438 7.402343-7.398438 19.601562 0 27 7.398438 7.402343 19.601562 7.402343 27 0zm0 0" fill="#f9d0b4"/><path d="m224.199219 442.351562 26.402343-26.402343c6.796876-6.800781 18-6.800781 24.796876 0 6.800781 6.800781 6.800781 18 0 24.800781l-26.398438 26.398438c-6.800781 6.800781-18 6.800781-24.800781 0-6.800781-7-6.800781-18 0-24.796876zm0 0" fill="#f9d0b4"/><path d="m199.398438 417.550781 26.402343-26.402343c6.800781-6.796876 18-6.796876 24.800781 0 6.796876 6.800781 6.796876 18 0 24.800781l-26.402343 26.402343c-6.800781 6.796876-18 6.796876-24.800781 0-6.796876-7-6.796876-18 0-24.800781zm0 0" fill="#f9d0b4"/><path d="m174.601562 392.75 26.398438-26.398438c6.800781-6.800781 18-6.800781 24.800781 0 6.800781 6.796876 6.800781 18 0 24.796876l-26.402343 26.402343c-6.796876 6.800781-18 6.800781-24.796876 0-6.800781-6.800781-6.800781-18 0-24.800781zm0 0" fill="#f9d0b4"/><path d="m150 367.949219 26.398438-26.398438c6.800781-6.800781 18-6.800781 24.800781 0s6.800781 18 0 24.800781l-26.398438 26.398438c-6.800781 6.800781-18 6.800781-24.800781 0-7-6.800781-7-18 0-24.800781zm0 0" fill="#f9d0b4"/><path d="m352.199219 396.75c6.601562-6.601562 6.601562-17.601562 0-24.199219-11.398438-11.402343-79.597657-79.800781-79.597657-79.800781l-16.203124-16.199219-15.199219 14.800781c-7.398438 7.398438-19.398438 7.398438-26.800781.199219-7.597657-7.601562-7.398438-20 .203124-27.601562l20.398438-20.398438c6.199219-6.199219 13.199219-11.402343 21-15.601562-8-4.199219-16.601562-7.199219-25.398438-8.800781l-18.601562-3.398438c-12.199219-1.800781-24.398438-8.199219-35.398438-18.199219l-15.601562-15.199219-88.199219 88.199219 29.800781 29.800781c6 6 11 12.796876 14.796876 20.199219l6.203124 12.199219c3.398438 6.800781 8 13 13.398438 18.398438l14.601562 14.601562 24.398438-24.398438c6.800781-6.800781 17.800781-7 24.800781-.203124 6.800781 6.800781 7 17.800781.199219 24.800781 0 0-.199219.199219-.199219.199219 6.800781-6.796876 18-6.796876 24.800781 0 6.796876 6.800781 6.796876 18 0 24.800781 7-6.800781 18-6.597657 24.796876.402343 6.601562 6.796876 6.601562 17.597657 0 24.398438 6.800781-6.800781 18-6.800781 24.800781 0s6.800781 18 0 24.800781l-24.398438 24.398438 4 4c6.398438 6.601562 17 7 24 1 7-6.398438 7.597657-17.199219 1.199219-24.199219-.199219-.199219-.398438-.398438-.601562-.601562 6.800781 6.601562 17.601562 6.601562 24.203124-.199219 6.597657-6.597657 6.597657-17.398438 0-24 6.796876 6.601562 17.597657 6.601562 24.199219-.199219 6.597657-6.601562 6.597657-17.398438 0-24 6.800781 6.601562 17.597657 6.601562 24.398438 0zm0 0" fill="#f9d0b4"/><path d="m401.601562 49.949219h-3.601562v-3.597657c0-2.800781-2.199219-5-5-5s-5 2.199219-5 5v3.597657h-3.601562c-2.796876 0-5 2.199219-5 5s2.203124 5 5 5h3.601562v3.601562c0 2.800781 2.199219 5 5 5s5-2.199219 5-5v-3.601562h3.601562c2.796876 0 5-2.199219 5-5s-2.203124-5-5-5zm0 0" fill="#ffcd29"/><path d="m358.199219 3.949219c0-.398438-.199219-.597657-.199219-1-.199219-.199219-.199219-.597657-.398438-.800781-.203124-.199219-.402343-.597657-.601562-.796876-2-1.800781-5-1.800781-7 0-.199219.199219-.398438.398438-.601562.796876-.398438.601562-.597657 1.203124-.796876 1.800781-.203124.601562-.203124 1.402343 0 2 0 .402343.199219.601562.199219 1 .199219.402343.199219.601562.398438.800781s.402343.601562.601562.800781c2 2 5 2 7 0 .199219-.199219.398438-.402343.597657-.800781.203124-.199219.402343-.601562.402343-.800781.199219-.199219.199219-.597657.199219-1 .199219-.800781.199219-1.398438.199219-2zm0 0" fill="#55acd5"/><path d="m110.199219 385.949219c0-.398438-.199219-.597657-.199219-1-.199219-.199219-.199219-.597657-.398438-.800781-.203124-.199219-.402343-.597657-.601562-.796876-2-1.800781-5-1.800781-7 0-.199219.199219-.398438.398438-.601562.796876-.398438.601562-.597657 1.203124-.796876 1.800781-.203124.601562-.203124 1.402343 0 2 0 .402343.199219.601562.199219 1 .199219.402343.199219.601562.398438.800781s.402343.601562.601562.800781c2 2 5 2 7 0 .199219-.199219.398438-.402343.597657-.800781.203124-.199219.402343-.601562.402343-.800781.199219-.199219.199219-.597657.199219-1 .199219-.800781.199219-1.398438.199219-2zm0 0" fill="#6dcc6d"/><path d="m85.800781 350.148438c-6.601562-1.199219-11.800781-6.398438-13.199219-13.199219 0-.199219-.203124-.199219-.402343-.199219s-.199219.199219-.199219.199219c-1.199219 6.601562-6.398438 11.800781-13.199219 13.199219-.199219 0-.199219.203124-.199219.402343s.199219.199219.199219.199219c6.597657 1.199219 11.800781 6.398438 13.199219 13.199219 0 .199219.199219.199219.398438.199219.203124 0 .203124-.199219.203124-.199219 1.199219-6.597657 6.398438-11.800781 13.199219-13.199219.199219 0 .199219-.199219.199219-.398438 0-.203124 0-.203124-.199219-.203124zm0 0" fill="#ea4647"/><g fill="#231f20"><path d="m64.601562 281.550781c-2.800781 0-5.402343-1-7.203124-3l-17.199219-17.199219c-2-2-2-5.203124 0-7l104.800781-104.800781c2-2 5.199219-2 7 0l17.199219 17.199219c4 4 4 10.601562 0 14.601562l-97.398438 97.398438c-1.800781 1.800781-4.402343 2.800781-7.199219 2.800781zm-13.800781-23.800781 13.800781 13.800781c.199219.199219.199219.199219.398438 0l97.398438-97.402343c.203124-.199219.203124-.199219 0-.398438l-14-13.800781zm0 0"/><path d="m447.398438 281.550781c-2.796876 0-5.398438-1-7.199219-3l-97.398438-97.402343c-4-4-4-10.597657 0-14.597657l17.199219-17.199219c2-1.800781 5-1.800781 7 0l104.800781 104.796876c2 2 2 5.203124 0 7l-17.199219 17.203124c-2 2.199219-4.601562 3.199219-7.203124 3.199219zm-84-121.601562-13.796876 13.800781c-.203124.199219-.203124.199219 0 .398438l97.398438 97.402343c.199219.199219.199219.199219.398438 0l13.800781-13.800781zm-17.199219 10.199219"/><path d="m353 378.148438c-1.398438 0-2.601562-.597657-3.601562-1.398438l-93.199219-93.398438-11.597657 11.398438c-9.402343 9.398438-24.800781 9.199219-34-.199219-9.203124-9.402343-9.203124-24.402343 0-33.800781l20.796876-20.800781c13.402343-13.398438 30.402343-22.398438 49-25.597657l18.601562-3.402343c11.398438-1.800781 22.601562-7.597657 33-17l15.398438-15c2-2 5-1.800781 7 0l88.203124 88.199219c2 2 2 5.203124 0 7l-29.800781 29.800781c-5.601562 5.601562-10.199219 12-13.800781 19l-6.199219 12.199219c-3.800781 7.203124-8.601562 14-14.402343 19.800781l-21.796876 21.800781c-1.203124 1-2.402343 1.398438-3.601562 1.398438zm-96.800781-106.796876c1.402343 0 2.601562.597657 3.601562 1.398438l93.199219 93.398438 18.398438-18.398438c5-5 9.203124-10.800781 12.601562-17.199219l6.199219-12.199219c4-8 9.402343-15.203124 15.601562-21.601562l26.398438-26.398438-81.199219-81.203124-12 11.601562c-11.800781 10.800781-25 17.601562-38.199219 19.601562l-18.402343 3.398438c-16.597657 3-31.796876 11-43.796876 22.800781l-20.800781 20.800781c-5.601562 5.597657-5.601562 14.398438 0 20 5.597657 5.597657 14.398438 5.597657 20 0l15.199219-14.800781c.601562-.800781 2-1.199219 3.199219-1.199219zm0 0"/><path d="m311.800781 285.550781c-15.800781 0-31.402343-4.601562-44.800781-12.800781l-7.398438 7.199219c-2 2-5.203124 1.800781-7-.199219-2-2-1.800781-5.199219.199219-7l10.199219-10c1.800781-1.800781 4.601562-1.800781 6.601562-.398438.199219.199219 27 20.199219 61.796876 10.398438 2.601562-.800781 5.402343.800781 6.203124 3.398438.796876 2.601562-.800781 5.402343-3.402343 6.203124h-.199219c-7.199219 2.199219-14.601562 3.199219-22.199219 3.199219zm0 0"/><path d="m328 401.75c-1.398438 0-2.601562-.601562-3.601562-1.398438l-77.796876-77.800781c-2-2-2-5-.203124-7 2-2 5-2 7-.199219 0 0 0 0 .203124.199219l77.796876 77.800781c2 2 2 5.199219 0 7-.796876.796876-2.199219 1.398438-3.398438 1.398438zm0 0"/><path d="m303.601562 425.949219c-1.402343 0-2.601562-.597657-3.601562-1.398438l-77.800781-77.800781c-2-2-2-5-.199219-7 2-2 5-2 7-.199219 0 0 0 0 .199219.199219l77.800781 77.800781c2 2 2 5.199219 0 7-.800781.800781-2 1.398438-3.398438 1.398438zm0 0"/><path d="m236.601562 477.148438c-12.402343 0-22.601562-10-22.601562-22.597657 0-6 2.398438-11.601562 6.601562-16l26.398438-26.402343c8.800781-8.796876 23.199219-8.597657 31.800781.203124 8.597657 8.796876 8.597657 22.796876 0 31.597657l-26.402343 26.402343c-4 4.398438-9.796876 6.796876-15.796876 6.796876zm26.398438-61.398438c-3.398438 0-6.601562 1.398438-8.800781 3.601562l-26.398438 26.398438c-4.800781 4.800781-4.800781 12.800781 0 17.601562 4.800781 4.796876 12.800781 4.796876 17.597657 0l26.402343-26.402343c4.800781-4.800781 4.800781-12.800781 0-17.597657-2.402343-2.203124-5.601562-3.601562-8.800781-3.601562zm12.199219 25"/><path d="m211.800781 452.351562c-12.402343 0-22.601562-10-22.601562-22.601562 0-6 2.402343-11.601562 6.601562-16l26.398438-26.398438c8.800781-8.800781 23.199219-8.601562 31.800781.199219s8.601562 22.800781 0 31.597657l-26.398438 26.402343c-4 4.398438-9.800781 6.800781-15.800781 6.800781zm26.398438-61.203124c-3.398438 0-6.597657 1.402343-8.800781 3.601562l-26.398438 26.398438c-4.800781 4.800781-4.800781 12.800781 0 17.601562s12.800781 4.800781 17.601562 0l26.398438-26.398438c4.800781-4.800781 4.800781-12.800781 0-17.601562-2.398438-2.398438-5.601562-3.601562-8.800781-3.601562zm12.402343 24.800781"/><path d="m187 427.550781c-12.398438 0-22.601562-10-22.601562-22.601562 0-6 2.402343-11.597657 6.601562-16l26.398438-26.398438c8.800781-8.800781 23.203124-8.601562 31.800781.199219 8.601562 8.800781 8.601562 22.800781 0 31.601562l-26.398438 26.398438c-4 4.601562-9.800781 6.800781-15.800781 6.800781zm26.398438-61.199219c-3.398438 0-6.597657 1.398438-8.796876 3.597657l-26.402343 26.402343c-4.800781 4.796876-4.800781 12.796876 0 17.597657s12.800781 4.800781 17.601562 0l26.398438-26.398438c4.800781-4.800781 4.800781-12.800781 0-17.601562-2.398438-2.398438-5.597657-3.597657-8.800781-3.597657zm12.402343 24.796876"/><path d="m162.199219 402.949219c-12.398438 0-22.597657-10-22.597657-22.597657 0-6 2.398438-11.800781 6.597657-16l26.402343-26.402343c9-8.597657 23.199219-8.398438 31.796876.402343 8.601562 8.796876 8.601562 22.597657 0 31.398438l-26.398438 26.398438c-4 4.402343-9.800781 6.800781-15.800781 6.800781zm26.402343-61.398438c-3.402343 0-6.601562 1.398438-8.800781 3.597657l-26.402343 26.402343c-4.796876 4.800781-4.796876 12.800781 0 17.597657 4.800781 4.800781 12.800781 4.800781 17.601562 0l26.398438-26.398438c4.800781-4.800781 4.800781-12.800781 0-17.601562-2.199219-2.398438-5.398438-3.597657-8.796876-3.597657zm0 0"/><path d="m267.601562 479.351562c-6 0-11.800781-2.402343-16.203124-6.800781l-4-4c-2-2-2-5.199219 0-7l24.402343-24.402343c4.800781-4.796876 4.800781-12.796876 0-17.597657s-12.800781-4.800781-17.601562 0c-2 2-5 2-7 .199219s-2-5-.199219-7c0 0 0 0 .199219-.199219 4.800781-4.800781 4.800781-12.800781 0-17.601562s-12.800781-4.800781-17.597657 0c-2 2-5 2-7 .199219-2-1.796876-2-5-.203124-7 0 0 0 0 .203124-.199219 4.796876-4.800781 4.796876-12.800781 0-17.597657-4.800781-4.800781-12.800781-4.800781-17.601562 0-2 2-5 2-7 .199219s-2-5-.199219-7c0 0 0 0 .199219-.199219 4.800781-4.800781 4.800781-12.800781 0-17.601562s-12.800781-4.800781-17.601562 0l-24.398438 24.398438c-1 1-2.199219 1.402343-3.601562 1.402343-1.398438 0-2.597657-.601562-3.597657-1.402343l-14.601562-14.597657c-5.800781-5.800781-10.597657-12.402343-14.398438-19.800781l-6.199219-12.199219c-3.601562-7-8.203124-13.402343-13.800781-19l-30.402343-30.601562c-2-2-2-5.199219 0-7l88.203124-88.199219c2-2 5-2 7 0l15.597657 15.199219c10.199219 9.402343 21.402343 15.199219 32.601562 17l18.597657 3.402343c9.402343 1.597657 18.402343 4.796876 26.800781 9.199219 2.402343 1.199219 3.402343 4.398438 2 6.800781-.398438.796876-1.199219 1.597657-2 2-7.398438 3.796876-14 8.796876-19.800781 14.597657l-20.398438 20.402343c-2.800781 2.796876-4.398438 6.597657-4.398438 10.597657 0 3.601562 1.398438 7.199219 4 9.800781 5.597657 5.398438 14.398438 5.199219 19.796876-.199219l15.203124-14.800781c2-2 5.199219-2 7 0l16.199219 16.199219s68.199219 68.402343 79.597657 79.800781c8.601562 8.601562 8.601562 22.601562 0 31.199219-4.796876 4.800781-11.199219 7-17.796876 6.402343 1.199219 12.199219-7.601562 23-19.800781 24.199219-.800781 0-1.402343.199219-2.199219.199219-.800781 0-1.402343 0-2.203124-.199219 0 .800781.203124 1.398438.203124 2.199219 0 12.199219-9.800781 22.199219-22.203124 22.199219-.796876 0-1.398438 0-2.199219-.199219 0 1 .199219 1.800781.199219 2.800781-.199219 12.199219-10 21.800781-21.796876 21.800781zm-9.601562-14.203124.398438.402343c4.601562 4.597657 12 5 17 .800781 5-4.402343 5.402343-12.203124.800781-17.203124-.199219-.199219-.199219-.199219-.398438-.398438s-.402343-.601562-.601562-.800781zm23.800781-24.398438c.398438.199219 1 .601562 1.199219 1 4.800781 4.601562 12.398438 4.601562 17.199219-.199219 4.601562-4.800781 4.601562-12.199219 0-17-2-2-1.800781-5.199219.199219-7s5-1.800781 7 0c4.800781 4.800781 12.402343 4.597657 17.203124 0 4.597657-4.800781 4.597657-12.402343 0-17-2-2-2-5.199219 0-7 2-2 5-2 7 0 4.796876 4.800781 12.398438 4.800781 17.199219 0s4.800781-12.402343 0-17.199219c-11.402343-11.402343-79.601562-79.800781-79.601562-79.800781l-12.800781-12.800781-11.597657 11.398438c-9.402343 9.203124-24.402343 9.402343-33.800781.203124-4.601562-4.402343-7.199219-10.601562-7.199219-17 0-6.601562 2.597657-13 7.199219-17.800781l20.398438-20.402343c4.203124-4.199219 8.800781-8 13.800781-11.398438-5-2-10.199219-3.398438-15.597657-4.398438l-18.601562-3.402343c-13-2-26.199219-8.800781-38-19.597657l-12.199219-11.800781-80.800781 81 26.398438 26.398438c6.402343 6.402343 11.601562 13.601562 15.601562 21.601562l6.199219 12.199219c3.199219 6.398438 7.402343 12.199219 12.601562 17.199219l11.199219 11.199219 20.800781-20.796876c8.800781-8.800781 23-8.800781 31.800781 0 4.796876 4.796876 7.199219 11.597657 6.398438 18.398438 12.398438-1.398438 23.398438 7.601562 24.800781 20 .199219 1.601562.199219 3.199219 0 4.800781 12.398438-1.402343 23.398438 7.597657 24.800781 20 .199219 1.597657.199219 3.199219 0 4.800781.796876 0 1.597657-.203124 2.398438-.203124 12.398438 0 22.601562 10 22.601562 22.601562-.203124 4-1.402343 8.199219-3.800781 12zm0 0"/><path d="m477.398438 269.550781c-2.796876 0-5.398438-1-7.398438-3l-113.601562-113.601562c-4-4-4-10.597657 0-14.800781l24.203124-24.199219c4-4 10.597657-4 14.796876 0l113.601562 113.601562c4 4 4 10.597657 0 14.800781l-24.199219 24.199219c-2 2-4.601562 3-7.402343 3zm-89.398438-148.402343c-.199219 0-.199219 0-.398438.203124l-24.203124 24.199219s-.199219.199219-.199219.398438 0 .199219.199219.402343l113.601562 113.597657c.199219.199219.398438.199219.601562 0l24.199219-24.199219c.199219-.199219.199219-.398438 0-.601562l-113.601562-113.597657c0-.402343 0-.402343-.199219-.402343zm0 0"/><path d="m34.601562 269.550781c-2.800781 0-5.402343-1-7.402343-3l-24.199219-24c-4-4-4-10.601562 0-14.800781l113.601562-113.601562c4-4 10.597657-4 14.796876 0l24.203124 24.203124c4 4 4 10.597657 0 14.796876l-113.601562 113.402343c-2 2-4.800781 3-7.398438 3zm89.398438-148.402343c-.199219 0-.199219 0-.398438.203124l-113.601562 113.398438c-.199219.199219-.199219.398438 0 .601562l24.199219 24.199219c.199219.199219.402343.199219.601562 0l113.597657-113.601562s.203124-.199219.203124-.398438 0-.199219-.203124-.402343l-24.199219-24zm-3.800781-3.398438"/><path d="m256 182.550781c-50.199219 0-91-40.800781-91-91s40.800781-91 91-91 91 40.800781 91 91-40.800781 91-91 91zm0-172c-44.800781 0-81 36.199219-81 81s36.199219 81 81 81 81-36.199219 81-81c0-44.601562-36.398438-80.800781-81-81zm0 0"/><path d="m256 160.148438c-37.800781 0-68.398438-30.597657-68.398438-68.398438s30.597657-68.398438 68.398438-68.398438 68.398438 30.597657 68.398438 68.398438c0 37.601562-30.597657 68.199219-68.398438 68.398438zm0-127c-32.398438 0-58.398438 26.203124-58.398438 58.402343s26.199219 58.398438 58.398438 58.398438 58.398438-26.199219 58.398438-58.398438-26.199219-58.402343-58.398438-58.402343zm0 0"/><path d="m249.199219 118.351562c-1.398438 0-2.800781-.601562-3.597657-1.601562l-20-21.800781c-1.800781-2-1.601562-5.199219.398438-7s5-1.597657 6.800781.402343l16.398438 18 29.800781-29.800781c2-2 5.199219-1.800781 7 .199219s1.800781 5 0 7l-33.601562 33.601562c-.597657.398438-1.796876 1-3.199219 1zm0 0"/></g></svg>