<?xml version="1.0" encoding="iso-8859-1"?>
<!-- Generator: Adobe Illustrator 21.0.0, SVG Export Plug-In . SVG Version: 6.00 Build 0)  -->
<svg xmlns="http://www.w3.org/2000/svg" xmlns:xlink="http://www.w3.org/1999/xlink" version="1.1" id="Capa_1" x="0px" y="0px" viewBox="0 0 511.04 511.04" style="enable-background:new 0 0 511.04 511.04;" xml:space="preserve" width="512" height="512">
<g>
	<rect x="227.323" y="109.391" style="fill:#D62D2D;" width="56.395" height="56.395"/>
	<rect x="227.323" y="138.786" style="fill:#9E1219;" width="56.395" height="27"/>
	<path style="fill:#FF3D43;" d="M101.804,165.786c0,0-73.615-9.713-35.545-101.293c43.321-104.211,161.064,44.898,161.064,44.898   v56.395H101.804z"/>
	<path style="fill:#FF3D43;" d="M409.236,165.786c0,0,73.615-9.713,35.545-101.293c-43.321-104.211-161.064,44.898-161.064,44.898   v56.395H409.236z"/>
	<path style="fill:#D62D2D;" d="M56.542,97.049c-9.936,61.438,45.262,68.736,45.262,68.736h125.519v-27H101.804   C101.804,138.786,63.852,133.776,56.542,97.049z"/>
	<path style="fill:#D62D2D;" d="M409.236,138.786H283.717v27h125.519c0,0,55.197-7.298,45.262-68.736   C447.188,133.776,409.236,138.786,409.236,138.786z"/>
	<path style="fill:#FFD039;" d="M465.65,239.87H45.39v218.568c0,13.858,11.234,25.093,25.093,25.093h370.074   c13.858,0,25.093-11.234,25.093-25.093V239.87z"/>
	<rect x="45.39" y="239.87" style="fill:#F4B70C;" width="420.259" height="27"/>
	<rect x="7.5" y="165.786" style="fill:#FFDF65;" width="496.04" height="74.084"/>
	<rect x="7.5" y="212.87" style="fill:#FFCD2C;" width="496.04" height="27"/>
	<rect x="218.437" y="165.786" style="fill:#FF3D43;" width="74.167" height="317.745"/>
	<rect x="265.603" y="165.786" style="fill:#D62D2D;" width="27" height="317.745"/>
	<path d="M503.54,158.285h-60.726c4.56-3.876,8.877-8.718,12.373-14.783c11.781-20.442,10.61-47.994-3.48-81.889   c-10.213-24.569-25.373-38.405-45.059-41.123c-50.613-6.987-113.546,65.677-126.505,81.4h-49.248   c-7.249-8.778-30.455-35.739-58.286-56.382c-3.327-2.468-8.024-1.771-10.492,1.556c-2.468,3.327-1.771,8.024,1.556,10.492   c26.905,19.957,49.981,47.015,56.151,54.498v46.232H102.402c-3.105-0.544-23.539-4.749-33.627-22.402   c-9.246-16.182-7.763-39.233,4.409-68.512c6.575-15.816,15.247-25.935,25.776-30.078c10.34-4.068,23.188-2.671,38.185,4.154   c3.77,1.716,8.217,0.051,9.933-3.719c1.716-3.77,0.051-8.217-3.719-9.933c-18.838-8.574-35.623-10.074-49.891-4.46   c-14.456,5.688-25.941,18.566-34.135,38.278c-14.09,33.895-15.261,61.447-3.48,81.889c3.496,6.066,7.812,10.907,12.372,14.783H7.5   c-4.142,0-7.5,3.358-7.5,7.5v74.085c0,4.142,3.358,7.5,7.5,7.5h30.39v211.068c0,17.972,14.621,32.593,32.593,32.593h51.082   c4.142,0,7.5-3.358,7.5-7.5c0-4.142-3.358-7.5-7.5-7.5H70.483c-9.701,0-17.593-7.892-17.593-17.593V247.37h158.046V476.03h-59.371   c-4.142,0-7.5,3.358-7.5,7.5c0,4.142,3.358,7.5,7.5,7.5h288.992c17.972,0,32.593-14.621,32.593-32.593V247.37h30.39   c4.142,0,7.5-3.358,7.5-7.5v-74.085C511.04,161.643,507.682,158.285,503.54,158.285z M330.338,71.437   c29.631-26.229,55.307-38.715,74.265-36.086c14.237,1.969,25.114,12.443,33.253,32.021c12.171,29.28,13.655,52.33,4.409,68.512   c-10.083,17.645-30.507,21.855-33.625,22.402H291.217v-46.233C296.036,106.204,311.17,88.405,330.338,71.437z M234.823,116.89   h41.395v41.395h-41.395V116.89z M15,232.37v-59.085h86.797c0.005,0,0.01,0.001,0.015,0.001c0.007,0,0.014-0.001,0.021-0.001   h109.103v59.085H15z M225.936,173.285h59.167V476.03h-59.167V173.285z M496.04,232.37h-79.82c-4.142,0-7.5,3.358-7.5,7.5   c0,4.142,3.358,7.5,7.5,7.5h41.93v211.068c0,9.701-7.892,17.593-17.593,17.593H300.103V247.37h86.117c4.142,0,7.5-3.358,7.5-7.5   c0-4.142-3.358-7.5-7.5-7.5h-86.117v-59.085h109.102c0.007,0,0.014,0.001,0.021,0.001c0.005,0,0.01-0.001,0.015-0.001h86.798   V232.37z"/>
</g>















</svg>
