<?xml version="1.0" encoding="iso-8859-1"?>
<!-- Generator: Adobe Illustrator 21.0.0, SVG Export Plug-In . SVG Version: 6.00 Build 0)  -->
<svg xmlns="http://www.w3.org/2000/svg" xmlns:xlink="http://www.w3.org/1999/xlink" version="1.1" id="Capa_1" x="0px" y="0px" viewBox="0 0 511.087 511.087" style="enable-background:new 0 0 511.087 511.087;" xml:space="preserve" width="512" height="512">
<g>
	<g>
		<path style="fill:#6E563D;" d="M455.489,437.395h-35.76l37.916,59.308c2.875,4.496,7.738,6.952,12.707,6.952    c2.777,0,5.587-0.767,8.1-2.374c7.01-4.481,9.059-13.797,4.577-20.807L455.489,437.395z"/>
		<g>
			<path style="fill:#6E563D;" d="M55.597,437.395l-27.54,43.079c-4.481,7.01-2.431,16.325,4.578,20.806     c2.514,1.607,5.323,2.374,8.1,2.374c4.968,0,9.832-2.456,12.707-6.953l37.915-59.307H55.597z"/>
		</g>
	</g>
	<rect x="9.487" y="392.201" style="fill:#A58260;" width="492.113" height="45.194"/>
	<polygon style="fill:#604B35;" points="455.489,437.395 419.729,437.395 436.99,464.395 472.75,464.395  "/>
	<polygon style="fill:#604B35;" points="38.336,464.395 74.096,464.395 91.357,437.395 55.597,437.395  "/>
	<rect x="9.487" y="414.798" style="fill:#8C6B50;" width="492.113" height="22.597"/>
	<path style="fill:#FFDF65;" d="M354.995,392.201H35.502c-11.833,0-21.426-9.592-21.426-21.426c0-11.833,9.592-21.426,21.426-21.426   h311.439l114.53-100.279c8.901-7.796,22.439-6.898,30.233,2.006c7.795,8.903,6.897,22.438-2.005,30.234L369.109,386.895   C365.203,390.316,360.188,392.201,354.995,392.201z"/>
	<path style="fill:#FFCD2C;" d="M491.704,251.077c-1.86-2.125-4.053-3.78-6.427-4.983c-0.516,5.227-2.922,10.279-7.186,14.013   L357.503,365.69c-3.906,3.421-8.922,5.306-14.114,5.306H23.895c-3.5,0-6.794-0.857-9.712-2.345   c-0.069,0.699-0.107,1.407-0.107,2.124c0,11.833,9.592,21.426,21.426,21.426h319.493c5.192,0,10.208-1.885,14.114-5.306   L489.698,281.31C498.602,273.515,499.499,259.98,491.704,251.077z"/>
	<rect x="233.504" y="143.839" style="fill:#A58260;" width="30.129" height="205.51"/>
	<rect x="248.568" y="143.839" style="fill:#8C6B50;" width="15.065" height="205.51"/>
	<path style="fill:#FFCD2C;" d="M155.571,100.94l13.633,32.353c2.693,6.391,8.953,10.546,15.888,10.546h126.95   c6.935,0,13.195-4.155,15.888-10.546l13.633-32.353H155.571z"/>
	<path style="fill:#F4B70C;" d="M314.565,100.94l-13.633,32.352c-2.693,6.391-8.953,10.546-15.889,10.546h27   c6.935,0,13.195-4.155,15.888-10.546l13.633-32.352H314.565z"/>
	<polyline style="fill:#FFDF65;" points="341.565,100.94 248.568,7.492 155.571,100.94  "/>
	<path style="fill:#B32425;" d="M25.78,100.94v25.657c0,9.522,7.719,17.242,17.242,17.242h86.128c7.478,0,14.103-4.82,16.405-11.935   l10.017-30.964H25.78z"/>
	<path style="fill:#9E1219;" d="M128.571,100.94l-10.017,30.964c-2.302,7.115-8.927,11.935-16.405,11.935h27   c7.478,0,14.103-4.82,16.405-11.935l10.017-30.964H128.571z"/>
	<path style="fill:#B32425;" d="M471.357,100.94v25.657c0,9.522-7.719,17.242-17.242,17.242h-86.128   c-7.478,0-14.103-4.82-16.405-11.935l-10.017-30.964H471.357z"/>
	<path style="fill:#9E1219;" d="M444.357,100.94v25.657c0,9.522-7.719,17.242-17.242,17.242h27c9.522,0,17.242-7.719,17.242-17.242   V100.94H444.357z"/>
	<polygon style="fill:#FF3D43;" points="248.568,7.492 155.571,100.94 25.78,100.94  "/>
	<polygon style="fill:#FF3D43;" points="248.568,7.492 341.565,100.94 471.357,100.94  "/>
	<path d="M501.6,384.702h-27.223l-43.558-41.869l63.82-55.88c9.007-7.886,12.265-20.906,7.975-32.101   c-4.305-11.237-15.411-18.716-27.418-18.589c-6.851,0.073-13.517,2.655-18.667,7.166L344.122,341.85h-72.988V151.339h40.91   c9.976,0,18.926-5.94,22.8-15.134l5.798-13.757l3.806,11.765c3.314,10.243,12.774,17.126,23.54,17.126h86.129   c13.643,0,24.741-11.099,24.741-24.741v-25.635c0.008-3.002-1.854-5.796-4.624-6.948l-109.74-46.031   c-3.819-1.601-8.215,0.193-9.817,4.015c-1.603,3.82,0.195,8.216,4.015,9.817l75.396,31.625h-89.404l-64.059-64.369l50.278,21.089   c3.82,1.602,8.216-0.194,9.817-4.015c1.602-3.82-0.195-8.216-4.015-9.817L251.469,0.577c-1.845-0.769-3.957-0.769-5.802,0   L22.906,94.014c-2.772,1.152-4.634,3.947-4.626,6.949v25.635c0,13.643,11.099,24.741,24.741,24.741h86.128   c10.766,0,20.227-6.883,23.541-17.126l3.806-11.765l5.797,13.757c3.874,9.193,12.823,15.134,22.8,15.134h40.911V341.85H120.676   c-4.142,0-7.5,3.357-7.5,7.5c0,4.143,3.358,7.5,7.5,7.5h226.265c1.817,0,3.573-0.66,4.94-1.857l114.53-100.28   c4.397-3.851,10.937-4.536,16.029-1.652c5.063,2.868,7.837,8.737,6.873,14.466c-0.529,3.147-2.155,6.039-4.555,8.141   l-69.877,61.183c-0.001,0.001-0.001,0.001-0.002,0.002l-50.709,44.4c-2.541,2.225-5.799,3.449-9.174,3.449H35.502   c-7.679,0-13.926-6.247-13.926-13.926c0-7.679,6.247-13.926,13.926-13.926h55.173c4.142,0,7.5-3.357,7.5-7.5   c0-4.143-3.358-7.5-7.5-7.5H35.502c-15.95,0-28.926,12.976-28.926,28.926c0,5.046,1.302,9.792,3.582,13.926H9.487   c-4.142,0-7.5,3.357-7.5,7.5v45.193c0,4.143,3.358,7.5,7.5,7.5h32.414l-20.163,31.539c-6.702,10.483-3.626,24.464,6.856,31.165   c10.378,6.637,24.546,3.502,31.166-6.856l35.703-55.848H298.79c4.143,0,7.5-3.357,7.5-7.5c0-4.143-3.357-7.5-7.5-7.5H16.987   v-30.193H494.1v30.193H328.79c-4.143,0-7.5,3.357-7.5,7.5c0,4.143,3.357,7.5,7.5,7.5h86.83l35.705,55.848   c6.622,10.358,20.787,13.493,31.166,6.857c5.078-3.247,8.588-8.276,9.883-14.163c1.295-5.887,0.22-11.926-3.026-17.004   l-20.162-31.538H501.6c4.143,0,7.5-3.357,7.5-7.5v-45.193C509.1,388.059,505.743,384.702,501.6,384.702z M463.857,108.441v18.157   c0,5.371-4.37,9.741-9.741,9.741h-86.129c-4.239,0-7.964-2.71-9.269-6.743l-6.844-21.155H463.857z M248.568,18.125l74.953,75.316   H173.616L248.568,18.125z M138.419,129.596c-1.305,4.033-5.03,6.743-9.269,6.743H43.021c-5.371,0-9.741-4.37-9.741-9.741v-18.157   h111.982L138.419,129.596z M63.05,93.441l153.462-64.369l-64.058,64.369H63.05z M176.116,130.381l-9.246-21.94h163.396   l-9.245,21.939c-1.525,3.62-5.05,5.959-8.978,5.959h-126.95C181.165,136.339,177.641,134,176.116,130.381z M241.004,151.339h15.129   V341.85h-15.129V151.339z M47.123,492.664c-1.397,2.186-3.785,3.491-6.388,3.491c-1.436,0-2.839-0.412-4.06-1.193   c-1.703-1.088-2.879-2.774-3.313-4.748c-0.434-1.973-0.074-3.997,1.014-5.699l25.329-39.619h17.957L47.123,492.664z    M419.491,352.75l33.24,31.951H383L419.491,352.75z M476.709,484.513c1.089,1.703,1.449,3.728,1.016,5.701   c-0.435,1.973-1.611,3.659-3.314,4.748c-1.22,0.78-2.623,1.192-4.059,1.192c-2.603,0-4.99-1.305-6.388-3.491l-30.539-47.769h17.956   L476.709,484.513z"/>
</g>















</svg>
