<?xml version="1.0" encoding="utf-8"?>
<!-- Generator: Adobe Illustrator 22.1.0, SVG Export Plug-In . SVG Version: 6.00 Build 0)  -->
<svg xmlns="http://www.w3.org/2000/svg" xmlns:xlink="http://www.w3.org/1999/xlink" version="1.1" id="Layer_1" x="0px" y="0px" viewBox="0 0 256 256" style="enable-background:new 0 0 256 256;" xml:space="preserve" width="512" height="512">
<style type="text/css">
	.st0{fill:#F9CFCF;}
	.st1{fill:#3762CC;}
	.st2{fill:#6BDDDD;}
	.st3{fill:#E0EBFC;}
	.st4{fill:#EAA97D;}
	.st5{fill:#A4C9FF;}
	.st6{fill:#F9A7A7;}
	.st7{fill:#4671C6;}
	.st8{fill:#FFEA92;}
	.st9{fill:#B9BEFC;}
	.st10{fill:#3962CA;}
	.st11{fill:#DDA073;}
</style>
<g>
	<g>
		<path class="st8" d="M158.5,43.126v-31.5c0-1.933-1.567-3.5-3.5-3.5s-3.5,1.567-3.5,3.5v31.5H158.5z"/>
	</g>
	<g>
		<path class="st1" d="M158.5,45.126h-7c-1.104,0-2-0.896-2-2v-31.5c0-3.033,2.467-5.5,5.5-5.5s5.5,2.467,5.5,5.5v31.5    C160.5,44.231,159.604,45.126,158.5,45.126z M153.5,41.126h3v-29.5c0-0.827-0.673-1.5-1.5-1.5s-1.5,0.673-1.5,1.5V41.126z"/>
	</g>
	<g>
		<path class="st0" d="M167,62.126v-17c0-1.105-0.895-2-2-2h-20c-1.105,0-2,0.895-2,2v17H167z"/>
	</g>
	<g>
		<path class="st6" d="M185,80.126v-10c0-4.418-3.582-8-8-8h-44c-4.418,0-8,3.582-8,8v10H185z"/>
	</g>
	<g>
		<path class="st6" d="M193.25,238.126h-78v-154c0-2.209,1.791-4,4-4h70c2.209,0,4,1.791,4,4V238.126z"/>
	</g>
	<g>
		<path class="st1" d="M193.25,240.126h-78c-1.104,0-2-0.896-2-2v-154c0-3.309,2.691-6,6-6h70c3.309,0,6,2.691,6,6v154    C195.25,239.231,194.354,240.126,193.25,240.126z M117.25,236.126h74v-152c0-1.103-0.897-2-2-2h-70c-1.103,0-2,0.897-2,2V236.126z    "/>
	</g>
	<g>
		<path class="st3" d="M92.75,238.126H23V95.364c0-1.39,0.722-2.681,1.906-3.408l61.99-38.08c2.667-1.638,6.098,0.283,6.094,3.414    L92.75,238.126z"/>
	</g>
	<g>
		<polygon class="st5" points="46.333,78.793 46.333,238.126 69.667,238.126 69.667,64.459   "/>
	</g>
	<g>
		<path class="st3" d="M23,95.364v142.763h23.333V78.793L24.906,91.955C23.722,92.683,23,93.973,23,95.364z"/>
	</g>
	<g>
		<path class="st1" d="M92.75,240.126H23c-1.104,0-2-0.896-2-2V95.363c0-2.07,1.096-4.029,2.859-5.112l61.991-38.08    c1.878-1.154,4.149-1.201,6.073-0.123c1.924,1.078,3.07,3.038,3.067,5.243l-0.24,180.837    C94.749,239.232,93.854,240.126,92.75,240.126z M25,236.126h65.752l0.238-178.84c0.001-1.06-0.714-1.575-1.022-1.748    c-0.309-0.173-1.122-0.513-2.024,0.041l-61.991,38.08C25.365,94.021,25,94.673,25,95.363V236.126z"/>
	</g>
	<g>
		<path class="st3" d="M206,248.126H10c-1.105,0-2-0.895-2-2v-6c0-1.105,0.895-2,2-2h196c1.105,0,2,0.895,2,2v6    C208,247.231,207.105,248.126,206,248.126z"/>
	</g>
	<g>
		<path class="st0" d="M150.667,238.126h-81v-116c0-2.209,1.791-4,4-4h73c2.209,0,4,1.791,4,4V238.126z"/>
	</g>
	<g>
		<path class="st6" d="M97.917,147.626h-14c-1.105,0-2-0.895-2-2v-14c0-1.105,0.895-2,2-2h14c1.105,0,2,0.895,2,2v14    C99.917,146.731,99.021,147.626,97.917,147.626z"/>
	</g>
	<g>
		<path class="st6" d="M137.917,147.626h-14c-1.105,0-2-0.895-2-2v-14c0-1.105,0.895-2,2-2h14c1.105,0,2,0.895,2,2v14    C139.917,146.731,139.021,147.626,137.917,147.626z"/>
	</g>
	<g>
		<path class="st6" d="M97.917,179.626h-14c-1.105,0-2-0.895-2-2v-14c0-1.105,0.895-2,2-2h14c1.105,0,2,0.895,2,2v14    C99.917,178.731,99.021,179.626,97.917,179.626z"/>
	</g>
	<g>
		<path class="st6" d="M137.917,179.626h-14c-1.105,0-2-0.895-2-2v-14c0-1.105,0.895-2,2-2h14c1.105,0,2,0.895,2,2v14    C139.917,178.731,139.021,179.626,137.917,179.626z"/>
	</g>
	<g>
		<path class="st6" d="M97.917,211.626h-14c-1.105,0-2-0.895-2-2v-14c0-1.105,0.895-2,2-2h14c1.105,0,2,0.895,2,2v14    C99.917,210.731,99.021,211.626,97.917,211.626z"/>
	</g>
	<g>
		<path class="st6" d="M137.917,211.626h-14c-1.105,0-2-0.895-2-2v-14c0-1.105,0.895-2,2-2h14c1.105,0,2,0.895,2,2v14    C139.917,210.731,139.021,211.626,137.917,211.626z"/>
	</g>
	<g>
		<path class="st7" d="M119.417,238.126h-18v-13c0-2.761,2.239-5,5-5h8c2.761,0,5,2.239,5,5V238.126z"/>
	</g>
	<g>
		<path class="st5" d="M179,136.126h-14c-1.105,0-2-0.895-2-2v-14c0-1.105,0.895-2,2-2h14c1.105,0,2,0.895,2,2v14    C181,135.231,180.105,136.126,179,136.126z"/>
	</g>
	<g>
		<path class="st5" d="M179,166.126h-14c-1.105,0-2-0.895-2-2v-14c0-1.105,0.895-2,2-2h14c1.105,0,2,0.895,2,2v14    C181,165.231,180.105,166.126,179,166.126z"/>
	</g>
	<g>
		<path class="st5" d="M179,196.126h-14c-1.105,0-2-0.895-2-2v-14c0-1.105,0.895-2,2-2h14c1.105,0,2,0.895,2,2v14    C181,195.231,180.105,196.126,179,196.126z"/>
	</g>
	<g>
		<path class="st5" d="M179,226.126h-14c-1.105,0-2-0.895-2-2v-14c0-1.105,0.895-2,2-2h14c1.105,0,2,0.895,2,2v14    C181,225.231,180.105,226.126,179,226.126z"/>
	</g>
	<g>
		<path class="st5" d="M179,106.126h-14c-1.105,0-2-0.895-2-2v-14c0-1.105,0.895-2,2-2h14c1.105,0,2,0.895,2,2v14    C181,105.231,180.105,106.126,179,106.126z"/>
	</g>
	<g>
		<path class="st5" d="M143,106.126h-14c-1.105,0-2-0.895-2-2v-14c0-1.105,0.895-2,2-2h14c1.105,0,2,0.895,2,2v14    C145,105.231,144.105,106.126,143,106.126z"/>
	</g>
	<g>
		<path class="st1" d="M150.667,240.126h-81c-1.104,0-2-0.896-2-2v-116c0-3.309,2.691-6,6-6h73c3.309,0,6,2.691,6,6v116    C152.667,239.231,151.771,240.126,150.667,240.126z M71.667,236.126h77v-114c0-1.103-0.897-2-2-2h-73c-1.103,0-2,0.897-2,2    V236.126z"/>
	</g>
	<g>
		<path class="st1" d="M97.917,149.626h-14c-2.206,0-4-1.794-4-4v-14c0-2.206,1.794-4,4-4h14c2.206,0,4,1.794,4,4v14    C101.917,147.832,100.122,149.626,97.917,149.626z M83.917,131.626v14h14.002l-0.002-14H83.917z"/>
	</g>
	<g>
		<path class="st1" d="M137.917,149.626h-14c-2.206,0-4-1.794-4-4v-14c0-2.206,1.794-4,4-4h14c2.206,0,4,1.794,4,4v14    C141.917,147.832,140.122,149.626,137.917,149.626z M123.917,131.626v14h14.002l-0.002-14H123.917z"/>
	</g>
	<g>
		<path class="st1" d="M97.917,181.626h-14c-2.206,0-4-1.794-4-4v-14c0-2.206,1.794-4,4-4h14c2.206,0,4,1.794,4,4v14    C101.917,179.832,100.122,181.626,97.917,181.626z M83.917,163.626v14h14.002l-0.002-14H83.917z"/>
	</g>
	<g>
		<path class="st1" d="M137.917,181.626h-14c-2.206,0-4-1.794-4-4v-14c0-2.206,1.794-4,4-4h14c2.206,0,4,1.794,4,4v14    C141.917,179.832,140.122,181.626,137.917,181.626z M123.917,163.626v14h14.002l-0.002-14H123.917z"/>
	</g>
	<g>
		<path class="st1" d="M97.917,213.626h-14c-2.206,0-4-1.794-4-4v-14c0-2.206,1.794-4,4-4h14c2.206,0,4,1.794,4,4v14    C101.917,211.832,100.122,213.626,97.917,213.626z M83.917,195.626v14h14.002l-0.002-14H83.917z"/>
	</g>
	<g>
		<path class="st1" d="M137.917,213.626h-14c-2.206,0-4-1.794-4-4v-14c0-2.206,1.794-4,4-4h14c2.206,0,4,1.794,4,4v14    C141.917,211.832,140.122,213.626,137.917,213.626z M123.917,195.626v14h14.002l-0.002-14H123.917z"/>
	</g>
	<g>
		<path class="st1" d="M179,138.126h-14c-2.206,0-4-1.794-4-4v-14c0-2.206,1.794-4,4-4h14c2.206,0,4,1.794,4,4v14    C183,136.332,181.206,138.126,179,138.126z M165,120.126v14h14.002l-0.002-14H165z"/>
	</g>
	<g>
		<path class="st1" d="M179,168.126h-14c-2.206,0-4-1.794-4-4v-14c0-2.206,1.794-4,4-4h14c2.206,0,4,1.794,4,4v14    C183,166.332,181.206,168.126,179,168.126z M165,150.126v14h14.002l-0.002-14H165z"/>
	</g>
	<g>
		<path class="st1" d="M179,198.126h-14c-2.206,0-4-1.794-4-4v-14c0-2.206,1.794-4,4-4h14c2.206,0,4,1.794,4,4v14    C183,196.332,181.206,198.126,179,198.126z M165,180.126v14h14.002l-0.002-14H165z"/>
	</g>
	<g>
		<path class="st1" d="M179,228.126h-14c-2.206,0-4-1.794-4-4v-14c0-2.206,1.794-4,4-4h14c2.206,0,4,1.794,4,4v14    C183,226.332,181.206,228.126,179,228.126z M165,210.126v14h14.002l-0.002-14H165z"/>
	</g>
	<g>
		<path class="st1" d="M179,108.126h-14c-2.206,0-4-1.794-4-4v-14c0-2.206,1.794-4,4-4h14c2.206,0,4,1.794,4,4v14    C183,106.332,181.206,108.126,179,108.126z M165,90.126v14h14.002l-0.002-14H165z"/>
	</g>
	<g>
		<path class="st1" d="M143,108.126h-14c-2.206,0-4-1.794-4-4v-14c0-2.206,1.794-4,4-4h14c2.206,0,4,1.794,4,4v14    C147,106.332,145.206,108.126,143,108.126z M129,90.126v14h14.002l-0.002-14H129z"/>
	</g>
	<g>
		<path class="st1" d="M206,250.126H10c-2.206,0-4-1.794-4-4v-6c0-2.206,1.794-4,4-4h196c2.206,0,4,1.794,4,4v6    C210,248.332,208.206,250.126,206,250.126z M10,240.126v6h196.002l-0.002-6H10z"/>
	</g>
	<g>
		<path class="st8" d="M197.416,30.953c-3.372,7.369-8.965,13.508-15.927,17.565c-1.249,0.728-1.249,2.494,0,3.221    c6.962,4.056,12.555,10.196,15.927,17.565c0.655,1.432,2.695,1.432,3.351,0c3.372-7.369,8.965-13.509,15.927-17.565    c1.249-0.728,1.249-2.494,0-3.221c-6.962-4.057-12.555-10.196-15.927-17.565C200.111,29.521,198.071,29.521,197.416,30.953z"/>
	</g>
	<g>
		<path class="st8" d="M222.879,8.625c-2.36,5.158-6.276,9.456-11.149,12.296c-0.874,0.509-0.874,1.746,0,2.255    c4.873,2.839,8.789,7.137,11.149,12.296c0.459,1.002,1.887,1.002,2.345,0c2.36-5.159,6.275-9.456,11.149-12.296    c0.874-0.509,0.874-1.745,0-2.255c-4.874-2.84-8.789-7.137-11.149-12.296C224.765,7.623,223.337,7.623,222.879,8.625z"/>
	</g>
	<g>
		<path class="st4" d="M227.171,188.343v-72.717c0-1.933-1.567-3.5-3.5-3.5h-2.299c-1.933,0-3.5,1.567-3.5,3.5v72.717H227.171z"/>
	</g>
	<g>
		<path class="st4" d="M232.337,196.56v-4.38c0-2.119-1.718-3.837-3.837-3.837h-11.957c-2.119,0-3.837,1.718-3.837,3.837v4.38    H232.337z"/>
	</g>
	<g>
		<path class="st5" d="M157.586,248.126h42.05c2.136,0,3.92-1.89,4.115-4.36l5.338-67.607h-60.958l5.338,67.607    C153.666,246.236,155.45,248.126,157.586,248.126z"/>
	</g>
	<g>
		<path class="st1" d="M199.637,250.126h-42.05c-3.204,0-5.83-2.667-6.109-6.202l-5.338-67.607    c-0.044-0.556,0.146-1.105,0.525-1.515s0.911-0.643,1.469-0.643h60.958c0.558,0,1.09,0.233,1.469,0.643s0.569,0.959,0.525,1.515    l-5.338,67.607C205.467,247.46,202.84,250.126,199.637,250.126z M150.297,178.16l5.168,65.45c0.111,1.411,1.043,2.517,2.122,2.517    h42.05c1.078,0,2.01-1.105,2.122-2.517l5.167-65.449H150.297z"/>
	</g>
	<g>
		<path class="st7" d="M145.7,187.7l-0.758-9.067c-0.111-1.328,0.842-2.474,2.058-2.474h63.222c1.216,0,2.169,1.146,2.058,2.474    l-0.758,9.067c-0.098,1.167-0.99,2.06-2.058,2.06h-61.707C146.69,189.76,145.798,188.867,145.7,187.7z"/>
	</g>
	<g>
		<path class="st1" d="M209.465,191.76h-61.707c-2.124,0-3.865-1.674-4.051-3.894l-0.758-9.066    c-0.103-1.232,0.307-2.449,1.125-3.338c0.772-0.84,1.812-1.302,2.926-1.302h63.222c1.115,0,2.154,0.462,2.926,1.302    c0.818,0.889,1.228,2.106,1.125,3.338l-0.757,9.066C213.33,190.086,211.589,191.76,209.465,191.76z M210.184,178.151L147,178.16    c0.006,0.01-0.08,0.121-0.064,0.307l0.758,9.067v0c0.013,0.152,0.085,0.225,0.103,0.234l61.668-0.008    c-0.021-0.002,0.052-0.074,0.065-0.227l0.757-9.066C210.303,178.28,210.217,178.17,210.184,178.151z"/>
	</g>
	<g>
		<path class="st0" d="M148.328,215.26h18.206c2.391,0,4.328-1.938,4.328-4.328v-33.843c0-2.391-1.938-4.328-4.328-4.328h-18.206    c-2.391,0-4.328,1.938-4.328,4.328v33.843C144,213.322,145.938,215.26,148.328,215.26z"/>
	</g>
	<g>
		<ellipse class="st6" cx="179.128" cy="182.96" rx="4.133" ry="4.533"/>
	</g>
	<g>
		<g>
			<path class="st0" d="M208.574,210.16c1.139,0,2.066-1.017,2.066-2.267s-0.927-2.267-2.066-2.267h-9.004     c-7.158,0-13.501-5.282-15.425-12.845l-2.509-9.864c-0.249-0.976-1.067-1.658-1.99-1.658c-0.187,0-0.374,0.028-0.555,0.084     c-0.532,0.163-0.974,0.543-1.245,1.07c-0.271,0.527-0.339,1.139-0.191,1.722l2.509,9.865c2.421,9.515,10.4,16.16,19.406,16.16     H208.574z"/>
		</g>
	</g>
	<g>
		<path class="st4" d="M200.308,211.293h44.427v-6.077c0-4.781-3.876-8.657-8.657-8.657h-27.113c-4.781,0-8.657,3.876-8.657,8.657    V211.293z"/>
	</g>
	<g>
		<path class="st3" d="M200.144,248.126H244.9c1.843,0,3.279-1.754,3.082-3.764l-3.247-33.069h-44.427l-3.247,33.069    C196.864,246.372,198.3,248.126,200.144,248.126z"/>
	</g>
	<g>
		<path class="st5" d="M237.503,220.926c0.856,0,1.55,0.761,1.55,1.7v25.5h-3.1v-25.5    C235.953,221.687,236.647,220.926,237.503,220.926z"/>
	</g>
	<g>
		<path class="st5" d="M231.304,226.593c0.856,0,1.55,0.761,1.55,1.7v19.833h-3.1v-19.833    C229.754,227.354,230.448,226.593,231.304,226.593z"/>
	</g>
	<g>
		<path class="st5" d="M225.105,232.26c0.856,0,1.55,0.761,1.55,1.7v14.167h-3.1V233.96    C223.555,233.021,224.249,232.26,225.105,232.26z"/>
	</g>
	<g>
		<path class="st5" d="M211.673,226.593c0.856,0,1.55,0.761,1.55,1.7v19.833h-3.1v-19.833    C210.124,227.354,210.818,226.593,211.673,226.593z"/>
	</g>
	<g>
		<path class="st5" d="M205.474,220.926c0.856,0,1.55,0.761,1.55,1.7v25.5h-3.1v-25.5    C203.924,221.687,204.618,220.926,205.474,220.926z"/>
	</g>
	<g>
		<path class="st1" d="M244.9,250.126h-44.756c-1.403,0-2.709-0.589-3.679-1.659c-1.042-1.148-1.549-2.716-1.393-4.301l3.247-33.069    c0.1-1.024,0.961-1.805,1.99-1.805h44.427c1.029,0,1.89,0.781,1.99,1.805l3.247,33.069c0.156,1.585-0.352,3.153-1.394,4.301    C247.609,249.538,246.303,250.126,244.9,250.126z M202.122,213.293l-3.07,31.265c-0.045,0.464,0.091,0.91,0.376,1.224    c0.143,0.157,0.382,0.345,0.715,0.345H244.9c0.333,0,0.573-0.188,0.715-0.345c0.285-0.314,0.422-0.76,0.376-1.224l-3.07-31.265    H202.122z"/>
	</g>
	<g>
		<path class="st1" d="M244.735,213.293h-44.427c-1.104,0-2-0.896-2-2v-6.077c0-5.876,4.781-10.657,10.657-10.657h27.113    c5.876,0,10.657,4.781,10.657,10.657v6.077C246.735,212.397,245.84,213.293,244.735,213.293z M202.309,209.293h40.427v-4.077    c0-3.67-2.986-6.657-6.657-6.657h-27.113c-3.67,0-6.657,2.986-6.657,6.657V209.293z"/>
	</g>
	<g>
		<path class="st1" d="M166.534,217.26h-18.206c-3.49,0-6.329-2.839-6.329-6.329v-33.843c0-3.489,2.839-6.328,6.329-6.328h18.206    c3.49,0,6.329,2.839,6.329,6.328v33.843C172.863,214.421,170.024,217.26,166.534,217.26z M148.329,174.76    c-1.284,0-2.329,1.044-2.329,2.328v33.843c0,1.284,1.044,2.329,2.329,2.329h18.206c1.284,0,2.329-1.044,2.329-2.329v-33.843    c0-1.284-1.044-2.328-2.329-2.328H148.329z"/>
	</g>
	<g>
		<path class="st1" d="M232.337,198.56h-19.63c-1.104,0-2-0.896-2-2v-4.38c0-3.218,2.619-5.837,5.837-5.837H228.5    c3.218,0,5.836,2.619,5.836,5.837v4.38C234.337,197.664,233.441,198.56,232.337,198.56z M214.707,194.56h15.63v-2.38    c0-1.013-0.824-1.837-1.836-1.837h-11.957c-1.013,0-1.837,0.824-1.837,1.837V194.56z"/>
	</g>
	<g>
		<path class="st1" d="M227.171,190.343h-9.298c-1.104,0-2-0.896-2-2v-72.717c0-3.032,2.467-5.5,5.5-5.5h2.299    c3.032,0,5.5,2.467,5.5,5.5v72.717C229.171,189.447,228.275,190.343,227.171,190.343z M219.873,186.343h5.298v-70.717    c0-0.827-0.673-1.5-1.5-1.5h-2.299c-0.827,0-1.5,0.673-1.5,1.5V186.343z"/>
	</g>
	<g>
		<path class="st1" d="M185,82.126h-60c-1.104,0-2-0.896-2-2v-10c0-5.514,4.486-10,10-10h44c5.514,0,10,4.486,10,10v10    C187,81.231,186.104,82.126,185,82.126z M127,78.126h56v-8c0-3.309-2.691-6-6-6h-44c-3.309,0-6,2.691-6,6V78.126z"/>
	</g>
	<g>
		<path class="st1" d="M167,64.126h-24c-1.104,0-2-0.896-2-2v-17c0-2.206,1.794-4,4-4h20c2.206,0,4,1.794,4,4v17    C169,63.231,168.104,64.126,167,64.126z M145,60.126h20v-15h-20V60.126z"/>
	</g>
	<g>
		<path class="st1" d="M185,82.126h-60c-1.104,0-2-0.896-2-2v-10c0-5.514,4.486-10,10-10h8v-15c0-2.206,1.794-4,4-4h20    c2.206,0,4,1.794,4,4v15h8c5.514,0,10,4.486,10,10v10C187,81.231,186.104,82.126,185,82.126z M127,78.126h56v-8    c0-3.309-2.691-6-6-6h-10c-1.104,0-2-0.896-2-2v-17h-20v17c0,1.104-0.896,2-2,2h-10c-3.309,0-6,2.691-6,6V78.126z"/>
	</g>
</g>
</svg>
