<?xml version="1.0" encoding="utf-8"?>
<!-- Generator: Adobe Illustrator 22.1.0, SVG Export Plug-In . SVG Version: 6.00 Build 0)  -->
<svg xmlns="http://www.w3.org/2000/svg" xmlns:xlink="http://www.w3.org/1999/xlink" version="1.1" id="Layer_1" x="0px" y="0px" viewBox="0 0 256 256" style="enable-background:new 0 0 256 256;" xml:space="preserve" width="512" height="512">
<style type="text/css">
	.st0{fill:#F9CFCF;}
	.st1{fill:#3762CC;}
	.st2{fill:#6BDDDD;}
	.st3{fill:#E0EBFC;}
	.st4{fill:#EAA97D;}
	.st5{fill:#A4C9FF;}
	.st6{fill:#F9A7A7;}
	.st7{fill:#4671C6;}
	.st8{fill:#FFEA92;}
	.st9{fill:#B9BEFC;}
	.st10{fill:#3962CA;}
	.st11{fill:#DDA073;}
</style>
<g>
	<g>
		<path class="st0" d="M22.057,179.125l14.784,57.494c0.682,2.652,3.073,4.506,5.811,4.506h170.695c2.738,0,5.129-1.854,5.811-4.506    l14.784-57.494H22.057z"/>
	</g>
	<g>
		<path class="st1" d="M213.348,243.125H42.652c-3.652,0-6.839-2.471-7.748-6.008L20.12,179.623    c-0.154-0.599-0.022-1.235,0.356-1.724c0.378-0.488,0.962-0.774,1.58-0.774h211.887c0.618,0,1.202,0.286,1.58,0.774    c0.379,0.488,0.511,1.125,0.356,1.724l-14.785,57.494C220.187,240.654,217,243.125,213.348,243.125z M24.636,181.125    l14.143,54.996c0.455,1.769,2.048,3.004,3.874,3.004h170.695c1.826,0,3.419-1.235,3.873-3.004l14.144-54.996H24.636z"/>
	</g>
	<g>
		<polygon class="st6" points="81.81,14.875 173.901,14.875 183.593,112.919 72.118,112.919   "/>
	</g>
	<g>
		<path class="st1" d="M183.594,114.919H72.118c-0.564,0-1.103-0.238-1.482-0.657c-0.379-0.418-0.563-0.978-0.508-1.539    l9.692-98.044c0.102-1.023,0.962-1.804,1.99-1.804h92.09c1.028,0,1.889,0.78,1.99,1.804l9.693,98.043    c0.056,0.563-0.129,1.122-0.508,1.54C184.696,114.681,184.158,114.919,183.594,114.919z M74.325,110.919h107.062l-9.299-94.044    H83.623L74.325,110.919z"/>
	</g>
	<g>
		<path class="st5" d="M219.892,48.194l-45.738-33.319l-0.223,0.307l-0.03-0.307h-17.997v1.299    c0,15.501-12.566,28.067-28.066,28.067h0c-15.501,0-28.066-12.566-28.066-28.067v-1.299H81.81l0,0L36.073,48.194    c-1.265,0.922-1.544,2.695-0.622,3.961l27.265,37.427c0.922,1.266,2.695,1.544,3.961,0.622l8.284-6.034l-4.23,42.786l-0.311,6.727    c-0.149,3.231,2.43,5.932,5.664,5.932h103.508c3.234,0,5.813-2.701,5.664-5.932l-0.344-7.436l-4.179-42.277l8.557,6.233    c1.265,0.922,3.039,0.644,3.961-0.622l27.265-37.427C221.436,50.889,221.157,49.116,219.892,48.194z"/>
	</g>
	<g>
		<path class="st1" d="M179.591,141.615H76.083c-2.116,0-4.086-0.843-5.547-2.373c-1.462-1.53-2.213-3.538-2.115-5.652l0.312-6.727    c0.002-0.034,0.004-0.069,0.008-0.104l3.79-38.346l-4.676,3.406c-2.156,1.571-5.187,1.095-6.755-1.061L33.835,53.333    c-1.57-2.155-1.094-5.186,1.061-6.755l45.737-33.319c0.342-0.25,0.755-0.384,1.178-0.384h17.96c1.104,0,2,0.896,2,2v1.3    c0,14.373,11.693,26.066,26.066,26.066s26.066-11.693,26.066-26.066v-1.3c0-1.104,0.896-2,2-2H173.9    c0.043,0,0.085,0.001,0.127,0.004c0.448-0.03,0.912,0.094,1.305,0.38l45.737,33.319c2.154,1.569,2.631,4.6,1.061,6.755    L194.865,90.76c-1.569,2.153-4.601,2.63-6.755,1.061l-4.949-3.605l3.74,37.836c0.004,0.034,0.006,0.069,0.008,0.104l0.344,7.436    c0.098,2.114-0.653,4.122-2.115,5.652C183.677,140.772,181.707,141.615,179.591,141.615z M72.726,127.101l-0.309,6.675    c-0.047,1.012,0.313,1.972,1.012,2.704s1.642,1.136,2.654,1.136h103.508c1.013,0,1.955-0.403,2.654-1.136s1.059-1.692,1.012-2.704    l-0.341-7.384l-4.175-42.225c-0.077-0.784,0.313-1.541,0.997-1.932c0.683-0.393,1.533-0.346,2.171,0.119l8.557,6.233    c0.243,0.176,0.492,0.17,0.621,0.149c0.128-0.02,0.368-0.09,0.546-0.333l27.265-37.427c0.271-0.372,0.188-0.896-0.184-1.167l0,0    l-44.79-32.629c-0.172,0-0.347-0.023-0.519-0.07c-0.193-0.053-0.375-0.133-0.539-0.236h-14.971    c-0.373,16.257-13.714,29.366-30.059,29.366S98.151,33.132,97.778,16.875H82.462L37.251,49.811    c-0.372,0.271-0.454,0.795-0.184,1.167l27.265,37.427c0.178,0.243,0.418,0.313,0.546,0.333c0.129,0.021,0.378,0.027,0.621-0.149    l8.283-6.034c0.637-0.465,1.487-0.51,2.171-0.119c0.685,0.391,1.074,1.147,0.997,1.932L72.726,127.101z"/>
	</g>
	<g>
		<path class="st4" d="M118.5,87.875c-2.706,0-5.218,0.828-7.299,2.243c-1.265-5.854-6.468-10.243-12.701-10.243    c-7.18,0-13,5.82-13,13c0,6.666,5.019,12.151,11.482,12.904v8.346c0,3.313,2.686,6,6,6s6-2.687,6-6v-4.416    c2.374,2.556,5.754,4.166,9.518,4.166c7.18,0,13-5.82,13-13S125.68,87.875,118.5,87.875z"/>
	</g>
	<g>
		<path class="st3" d="M232.913,163.125c-1.02-12.871-11.78-23-24.913-23c-5.628,0-10.822,1.861-15,5c0-13.807-11.193-25-25-25    c-11.321,0-20.879,7.526-23.956,17.847c-4.345-3.647-9.945-5.847-16.062-5.847c-6.103,0-11.693,2.189-16.034,5.822    C108.864,127.64,99.312,120.125,88,120.125c-13.807,0-25,11.193-25,25c-4.178-3.139-9.372-5-15-5    c-13.133,0-23.893,10.129-24.913,23H232.913z"/>
	</g>
	<g>
		<path class="st1" d="M232.913,165.125H23.087c-0.558,0-1.091-0.233-1.469-0.643c-0.379-0.41-0.569-0.959-0.525-1.516    c1.104-13.93,12.923-24.842,26.907-24.842c4.698,0,9.211,1.187,13.231,3.457c1.74-13.22,13.081-23.457,26.769-23.457    c10.89,0,20.764,6.7,24.915,16.598c4.433-2.98,9.688-4.598,15.067-4.598c5.392,0,10.656,1.624,15.095,4.617    c4.146-9.909,14.022-16.617,24.923-16.617c13.688,0,25.028,10.237,26.769,23.457c4.021-2.271,8.533-3.457,13.231-3.457    c13.984,0,25.804,10.912,26.907,24.842c0.044,0.557-0.146,1.105-0.525,1.516C234.004,164.892,233.471,165.125,232.913,165.125z     M25.355,161.125h205.289c-1.909-10.814-11.465-19-22.645-19c-5.021,0-9.793,1.591-13.799,4.6    c-0.607,0.453-1.42,0.528-2.095,0.189c-0.678-0.339-1.106-1.031-1.106-1.789c0-12.683-10.317-23-23-23    c-10.094,0-19.157,6.751-22.039,16.418c-0.192,0.646-0.697,1.151-1.343,1.345c-0.642,0.194-1.343,0.049-1.86-0.384    c-4.131-3.469-9.379-5.379-14.775-5.379c-5.386,0-10.623,1.902-14.749,5.355c-0.517,0.434-1.213,0.577-1.859,0.383    c-0.644-0.193-1.147-0.698-1.341-1.343c-2.89-9.653-11.95-16.396-22.033-16.396c-12.683,0-23,10.317-23,23    c0,0.758-0.429,1.45-1.106,1.789c-0.676,0.339-1.488,0.264-2.095-0.189c-4.006-3.009-8.777-4.6-13.799-4.6    C36.82,142.125,27.265,150.311,25.355,161.125z"/>
	</g>
	<g>
		<path class="st6" d="M242.976,176.121l2.057-8c0.651-2.531-1.261-4.996-3.874-4.996H14.841c-2.613,0-4.525,2.465-3.874,4.996    l2.057,8c0.455,1.768,2.049,3.004,3.874,3.004h222.203C240.927,179.125,242.521,177.889,242.976,176.121z"/>
	</g>
	<g>
		<path class="st1" d="M239.102,181.125H16.898c-2.738,0-5.128-1.853-5.811-4.505l-2.057-8.001c-0.466-1.81-0.076-3.694,1.068-5.171    s2.873-2.323,4.741-2.323h226.318c1.868,0,3.597,0.847,4.741,2.323s1.534,3.361,1.068,5.171l-2.056,8    c-0.001,0-0.001,0-0.001,0.001C244.229,179.272,241.84,181.125,239.102,181.125z M14.841,165.125c-0.623,0-1.198,0.282-1.58,0.774    s-0.512,1.12-0.356,1.724l2.058,8c0.228,0.884,1.023,1.502,1.937,1.502h222.203c0.913,0,1.709-0.618,1.938-1.503l2.056-7.999    c0.156-0.604,0.026-1.231-0.355-1.724s-0.957-0.774-1.58-0.774H14.841z M242.976,176.121h0.01H242.976z"/>
	</g>
	<g>
		<path class="st3" d="M79.75,197.125L79.75,197.125c4.971,0,9-4.029,9-9v-27h-18v27C70.75,193.096,74.779,197.125,79.75,197.125z"/>
	</g>
	<g>
		<path class="st3" d="M61.75,211.125L61.75,211.125c4.971,0,9-4.029,9-9v-41h-18v41C52.75,207.096,56.779,211.125,61.75,211.125z"/>
	</g>
	<g>
		<path class="st3" d="M178,197.125L178,197.125c4.971,0,9-4.029,9-9v-27h-18v27C169,193.096,173.029,197.125,178,197.125z"/>
	</g>
	<g>
		<path class="st1" d="M79.75,199.125c-6.065,0-11-4.935-11-11v-27c0-1.104,0.896-2,2-2s2,0.896,2,2v27c0,3.859,3.141,7,7,7    s7-3.141,7-7v-27c0-1.104,0.896-2,2-2s2,0.896,2,2v27C90.75,194.19,85.815,199.125,79.75,199.125z"/>
	</g>
	<g>
		<path class="st1" d="M61.75,213.125c-6.065,0-11-4.935-11-11v-41c0-1.104,0.896-2,2-2s2,0.896,2,2v41c0,3.859,3.141,7,7,7    s7-3.141,7-7v-41c0-1.104,0.896-2,2-2s2,0.896,2,2v41C72.75,208.19,67.815,213.125,61.75,213.125z"/>
	</g>
	<g>
		<path class="st1" d="M178,199.125c-6.065,0-11-4.935-11-11v-27c0-1.104,0.896-2,2-2s2,0.896,2,2v27c0,3.859,3.141,7,7,7    s7-3.141,7-7v-27c0-1.104,0.896-2,2-2s2,0.896,2,2v27C189,194.19,184.065,199.125,178,199.125z"/>
	</g>
</g>
</svg>
